<svg width="30" height="25" viewBox="0 0 30 25" fill="none" xmlns="http://www.w3.org/2000/svg">
<path fill-rule="evenodd" clip-rule="evenodd" d="M25.9091 0H4.09091C1.83826 0 0.0136359 1.83729 0.0136359 4.09091L0 20.4534C0 22.7077 1.83779 24.5455 4.09091 24.5455H25.9091C28.1622 24.5455 30 22.7077 30 20.4545V4.09091C30 1.83779 28.1622 0 25.9091 0ZM5.8031 7.99328C5.33005 7.70825 5.17763 7.09371 5.46265 6.62066L5.83799 5.99772C6.12302 5.52467 6.73756 5.37224 7.21061 5.65727L14.9607 10.3269L23.0341 5.46241C23.5071 5.17738 24.1217 5.32981 24.4067 5.80286L24.7837 6.42855C25.0681 6.90052 24.9171 7.51361 24.446 7.79951L15.0127 13.5248L15.005 13.5377L5.8031 7.99328Z" fill="black"/>
</svg>
