<svg width="15" height="11" viewBox="0 0 15 11" fill="none" xmlns="http://www.w3.org/2000/svg">
<path d="M0 9.72818V1.30237C0 1.0382 0.31674 0.90299 0.507514 1.08572L7.29249 7.58452C7.40851 7.69565 7.59149 7.69565 7.70751 7.58452L14.4925 1.08572C14.6833 0.90299 15 1.0382 15 1.30237V9.72818C15 9.89387 14.8657 10.0282 14.7 10.0282H0.3C0.134315 10.0282 0 9.89387 0 9.72818Z" fill="#424B5A"/>
<path d="M7.29145 6.68365L1.53324 1.11527C1.33936 0.927781 1.47208 0.599609 1.74178 0.599609H13.2582C13.5279 0.599609 13.6606 0.92778 13.4668 1.11527L7.70855 6.68365C7.59226 6.79611 7.40774 6.79611 7.29145 6.68365Z" fill="#424B5A"/>
</svg>
