<svg width="256" height="42" viewBox="0 0 256 42" fill="none" xmlns="http://www.w3.org/2000/svg">
<mask id="mask0_1359_62912" style="mask-type:alpha" maskUnits="userSpaceOnUse" x="0" y="0" width="30" height="42">
<path fill-rule="evenodd" clip-rule="evenodd" d="M5.39442 21.8567V29.0357C5.39442 32.7527 8.68798 35.7659 12.7508 35.7659H16.6742C20.737 35.7659 24.0305 32.7527 24.0305 29.0357V21.8567H25.0114V29.0357C25.0114 33.2483 21.2787 36.6633 16.6742 36.6633H12.7508C8.14627 36.6633 4.41357 33.2483 4.41357 29.0357V21.8567H5.39442Z" fill="#D20509"/>
<path fill-rule="evenodd" clip-rule="evenodd" d="M5.39442 21.8567V28.2396C5.39442 32.0166 8.68798 35.0784 12.7508 35.0784H16.6742C20.737 35.0784 24.0305 32.0166 24.0305 28.2396V21.8567H25.0114V28.2396C25.0114 32.5202 21.2787 35.9903 16.6742 35.9903H12.7508C8.14627 35.9903 4.41357 32.5202 4.41357 28.2396V21.8567H5.39442Z" fill="#D20509"/>
<path fill-rule="evenodd" clip-rule="evenodd" d="M14.3911 35.6788V0H15.3196V35.6788H14.3911Z" fill="#D20509"/>
<path fill-rule="evenodd" clip-rule="evenodd" d="M22.5595 7.46406C21.6306 7.19538 20.6421 7.05054 19.617 7.05054H17.2939V8.85709H19.617C20.6575 8.85709 21.6508 9.04362 22.5595 9.38236V7.46406ZM24.5212 10.442C26.3151 11.7663 27.4637 13.8013 27.4637 16.0833V32.3422C27.4637 36.3332 23.9506 39.5684 19.617 39.5684H9.80848C5.47482 39.5684 1.9617 36.3332 1.9617 32.3422V16.0833C1.9617 13.8013 3.11034 11.7663 4.90424 10.442V8.25896C1.97248 9.82076 0 12.7399 0 16.0833V32.3422C0 37.3309 4.3914 41.375 9.80848 41.375H19.617C25.034 41.375 29.4254 37.3309 29.4254 32.3422V16.0833C29.4254 12.7399 27.453 9.82076 24.5212 8.25896V10.442ZM9.80848 8.85709C8.76789 8.85709 7.77462 9.04362 6.86593 9.38236V7.46406C7.79484 7.19538 8.78329 7.05054 9.80848 7.05054H12.1315V8.85709H9.80848Z" fill="black"/>
<path fill-rule="evenodd" clip-rule="evenodd" d="M21.1287 3.07916V8.88337H22.568V3.36976C22.105 3.23652 21.6239 3.13845 21.1287 3.07916ZM24.643 4.17893V10.416H26.0823V5.22681C25.6505 4.83162 25.1676 4.47962 24.643 4.17893ZM3.45605 5.22682V10.416H4.89534V4.17894C4.37067 4.47963 3.8878 4.83164 3.45605 5.22682ZM6.84051 3.41441L6.84051 8.88337H8.45897V3.07916C7.96373 3.13845 7.30343 3.28117 6.84051 3.41441ZM11.0657 3.0127V8.88336H12.505V3.0127H11.0657ZM16.6495 3.0127V8.88337H18.0888V3.0127H16.6495Z" fill="black"/>
<path d="M0.855957 19.0546C2.01806 18.663 5.2543 17.8799 6.84804 17.8799C8.84022 17.8799 12.4899 19.4462 14.9802 19.4462C17.4704 19.4462 20.2641 17.8799 22.2563 17.8799C24.2484 17.8799 28.2484 19.4462 28.2484 19.4462" stroke="#AEAEAE"/>
</mask>
<g mask="url(#mask0_1359_62912)">
<path d="M-0.000488281 -1.70093H29.4249V41.3729H-0.000488281V-1.70093Z" fill="white"/>
</g>
<path d="M38.5391 21.2738C38.5391 20.4593 38.7034 19.6636 39.0321 18.8867C39.3608 18.0973 39.8402 17.383 40.4702 16.744C41.1003 16.1049 41.8672 15.5974 42.7712 15.2215C43.6751 14.8331 44.7024 14.6388 45.8528 14.6388C47.2225 14.6388 48.4072 14.9082 49.407 15.4471C50.4205 15.9859 51.1738 16.6876 51.6669 17.5522L49.0783 19.2062C48.8591 18.7301 48.5647 18.3604 48.1949 18.0973C47.8388 17.8341 47.4416 17.6524 47.0033 17.5522C46.5787 17.4394 46.1678 17.383 45.7707 17.383C45.1269 17.383 44.5654 17.5021 44.086 17.7402C43.6067 17.9657 43.2095 18.2727 42.8945 18.6611C42.5794 19.0496 42.3466 19.4819 42.1959 19.9581C42.0453 20.4342 41.97 20.9104 41.97 21.3865C41.97 21.9128 42.059 22.4203 42.237 22.909C42.4151 23.3977 42.6685 23.83 42.9972 24.2059C43.3396 24.5818 43.7505 24.8826 44.2298 25.1081C44.7092 25.3211 45.2365 25.4277 45.8117 25.4277C46.2226 25.4277 46.6404 25.365 47.0649 25.2397C47.4895 25.1144 47.8799 24.9202 48.236 24.657C48.6058 24.3814 48.8865 24.0242 49.0783 23.5857L51.8312 25.0705C51.5436 25.7221 51.0711 26.2797 50.4137 26.7434C49.7563 27.207 49.0098 27.5641 48.1743 27.8147C47.3526 28.0528 46.5376 28.1718 45.7296 28.1718C44.675 28.1718 43.7025 27.9776 42.8123 27.5892C41.9357 27.1882 41.1756 26.6619 40.5319 26.0103C39.9018 25.3462 39.4088 24.6069 39.0527 23.7924C38.7103 22.9654 38.5391 22.1258 38.5391 21.2738Z" fill="white"/>
<path d="M53.6078 28.0591V14.714H56.9771V23.6796L63.2636 14.714H66.4069V28.0591H63.0377V19.1498L56.8333 28.0591H53.6078Z" fill="white"/>
<path d="M81.8476 14.714V28.0591H78.4783V22.5895H72.6643V28.0591H69.295V14.714H72.6643V19.8829H78.4783V14.714H81.8476Z" fill="white"/>
<path d="M95.7575 17.4206H91.3199V28.0591H87.9507V17.4206H83.4926V14.714H95.7575V17.4206Z" fill="white"/>
<path d="M97.403 28.0591V14.714H103.628C104.326 14.714 104.963 14.8456 105.539 15.1087C106.127 15.3593 106.634 15.7039 107.059 16.1425C107.483 16.5685 107.812 17.051 108.045 17.5898C108.278 18.1286 108.394 18.6799 108.394 19.2438C108.394 20.0082 108.196 20.735 107.798 21.4241C107.415 22.1133 106.874 22.6772 106.175 23.1158C105.491 23.5418 104.676 23.7548 103.731 23.7548H100.772V28.0591H97.403ZM100.772 21.067H103.525C103.785 21.067 104.025 20.9981 104.244 20.8603C104.463 20.7224 104.641 20.5157 104.778 20.24C104.915 19.9643 104.984 19.626 104.984 19.225C104.984 18.8115 104.902 18.4732 104.737 18.21C104.587 17.9344 104.388 17.7339 104.142 17.6086C103.909 17.4833 103.662 17.4206 103.402 17.4206H100.772V21.067Z" fill="white"/>
<path d="M120.455 25.3525V28.0591H110.203V14.714H120.27V17.4206H113.572V20.0144H119.325V22.5143H113.572V25.3525H120.455Z" fill="white"/>
<path d="M122.584 28.0591V14.714H125.953V23.6796L132.24 14.714H135.383V28.0591H132.014V19.1498L125.809 28.0591H122.584ZM128.994 13.9998C128.185 13.9998 127.466 13.8745 126.836 13.6239C126.22 13.3607 125.741 13.0099 125.398 12.5713C125.056 12.1202 124.885 11.6127 124.885 11.0488H127.124C127.124 11.4247 127.281 11.7631 127.597 12.0638C127.912 12.352 128.377 12.4961 128.994 12.4961C129.61 12.4961 130.076 12.3583 130.391 12.0826C130.719 11.8069 130.884 11.4623 130.884 11.0488H133.123C133.123 11.6127 132.952 12.1202 132.609 12.5713C132.267 13.0099 131.781 13.3607 131.151 13.6239C130.534 13.8745 129.815 13.9998 128.994 13.9998Z" fill="white"/>
<path d="M137.449 30.6153V25.3525H138.271C138.627 25.3525 138.935 25.2272 139.195 24.9766C139.469 24.7134 139.702 24.3124 139.894 23.7736C140.086 23.2223 140.236 22.5206 140.346 21.6685C140.455 20.8039 140.531 19.7701 140.572 18.5672L140.695 14.714H150.803V25.3525H152.796V30.6153H149.837V28.0591H140.387V30.6153H137.449ZM142.215 25.3525H147.434V17.4206H143.756L143.715 18.9995C143.688 20.1398 143.619 21.1297 143.51 21.9692C143.414 22.7962 143.263 23.4917 143.058 24.0556C142.852 24.6069 142.571 25.0392 142.215 25.3525Z" fill="white"/>
<path d="M154.535 24.2435V21.5369H171.566V24.2435H154.535Z" fill="white"/>
<path d="M174.125 28.0591V14.714H177.473V19.8829H178.624L182.692 14.714H186.431L181.212 21.161L186.883 28.0591H182.794L178.521 22.6835H177.473V28.0591H174.125Z" fill="white"/>
<path d="M192.306 14.714H195.942L200.955 28.0591H197.504L196.374 25.0705H191.833L190.724 28.0591H187.273L192.306 14.714ZM195.819 22.9466L194.114 17.8153L192.368 22.9466H195.819Z" fill="white"/>
<path d="M207.467 28.1906C206.207 28.1906 205.07 27.9588 204.057 27.4952C203.057 27.0316 202.262 26.3862 201.673 25.5592L204.2 24.1307C204.529 24.5944 204.961 24.964 205.495 25.2397C206.043 25.5028 206.673 25.6344 207.385 25.6344C208.193 25.6344 208.782 25.484 209.152 25.1833C209.521 24.8826 209.706 24.5004 209.706 24.0368C209.706 23.7235 209.624 23.4478 209.46 23.2097C209.309 22.9717 209.063 22.79 208.72 22.6647C208.391 22.5268 207.967 22.4579 207.446 22.4579H205.577V20.146H207.467C207.892 20.146 208.241 20.0896 208.515 19.9769C208.789 19.8516 208.987 19.6887 209.111 19.4882C209.247 19.2751 209.316 19.0308 209.316 18.7551C209.316 18.4795 209.241 18.2414 209.09 18.0409C208.953 17.8279 208.734 17.665 208.433 17.5522C208.131 17.4269 207.741 17.3642 207.262 17.3642C206.495 17.3642 205.844 17.4958 205.31 17.7589C204.776 18.0221 204.372 18.3604 204.098 18.7739L201.653 17.1951C202.269 16.4182 203.029 15.7979 203.933 15.3343C204.851 14.8581 206.008 14.62 207.405 14.62C208.487 14.62 209.412 14.7579 210.179 15.0335C210.946 15.3092 211.535 15.7227 211.946 16.2741C212.37 16.8129 212.583 17.4833 212.583 18.2852C212.583 18.8616 212.425 19.4192 212.11 19.9581C211.809 20.4843 211.302 20.8979 210.59 21.1986C211.398 21.4116 212.021 21.8001 212.459 22.3639C212.898 22.9278 213.117 23.5857 213.117 24.3375C213.117 25.177 212.87 25.885 212.377 26.4614C211.884 27.0253 211.213 27.4576 210.364 27.7583C209.515 28.0465 208.549 28.1906 207.467 28.1906Z" fill="white"/>
<path d="M218.608 14.714H222.245L227.257 28.0591H223.806L222.676 25.0705H218.136L217.026 28.0591H213.575L218.608 14.714ZM222.121 22.9466L220.416 17.8153L218.67 22.9466H222.121Z" fill="white"/>
<path d="M241.246 14.714V28.0591H237.877V22.5895H232.063V28.0591H228.694V14.714H232.063V19.8829H237.877V14.714H241.246Z" fill="white"/>
<path d="M244.104 28.0591V14.714H247.473V19.319H250.185C251.267 19.319 252.191 19.4944 252.958 19.8453C253.725 20.1961 254.314 20.6974 254.725 21.349C255.136 22.0005 255.341 22.7712 255.341 23.6608C255.341 24.538 255.143 25.3086 254.746 25.9727C254.348 26.6369 253.78 27.1506 253.04 27.514C252.301 27.8774 251.41 28.0591 250.37 28.0591H244.104ZM247.473 25.5404H249.877C250.342 25.5404 250.726 25.459 251.027 25.2961C251.328 25.1332 251.547 24.9076 251.684 24.6194C251.835 24.3312 251.91 24.0117 251.91 23.6608C251.91 23.335 251.835 23.0343 251.684 22.7586C251.547 22.483 251.328 22.2637 251.027 22.1008C250.739 21.9254 250.356 21.8376 249.877 21.8376H247.473V25.5404Z" fill="white"/>
<path d="M38.6431 39.0241V34.5272H39.4717V36.388H42.0329V34.5272H42.8615V39.0241H42.0329V37.06H39.4717V39.0241H38.6431Z" fill="white"/>
<path d="M43.7171 37.7233C43.7171 37.4362 43.805 37.1892 43.9808 36.9824C44.1628 36.7699 44.4108 36.6063 44.7246 36.4914C45.0385 36.3765 45.4026 36.3191 45.8169 36.3191C46.0366 36.3191 46.2689 36.3363 46.5137 36.3708C46.7585 36.3995 46.9751 36.4455 47.1634 36.5086V36.1813C47.1634 35.8367 47.0504 35.5668 46.8244 35.3715C46.5985 35.1705 46.2783 35.07 45.864 35.07C45.5941 35.07 45.3336 35.1159 45.0825 35.2078C44.8376 35.294 44.5771 35.4203 44.3009 35.5869L43.9996 35.0527C44.3197 34.8517 44.6399 34.7024 44.96 34.6048C45.2802 34.5014 45.6129 34.4497 45.9582 34.4497C46.5859 34.4497 47.0818 34.6105 47.4459 34.9321C47.81 35.248 47.992 35.6902 47.992 36.2588V38.1627C47.992 38.2546 48.0109 38.3235 48.0485 38.3694C48.0925 38.4096 48.1615 38.4326 48.2557 38.4383V39.0241C48.1741 39.0356 48.1019 39.0442 48.0391 39.05C47.9826 39.0557 47.9355 39.0586 47.8979 39.0586C47.7033 39.0586 47.5558 39.0098 47.4553 38.9122C47.3612 38.8145 47.3078 38.7111 47.2952 38.602L47.2764 38.3177C47.063 38.5704 46.7836 38.7657 46.4384 38.9035C46.0931 39.0414 45.751 39.1103 45.412 39.1103C45.0856 39.1103 44.7937 39.05 44.5363 38.9294C44.2789 38.803 44.0781 38.6365 43.9337 38.4297C43.7893 38.2172 43.7171 37.9818 43.7171 37.7233ZM46.9186 38.0421C46.9939 37.9617 47.0536 37.8813 47.0975 37.8008C47.1414 37.7147 47.1634 37.6429 47.1634 37.5855V37.0255C46.9688 36.9566 46.7648 36.9049 46.5514 36.8705C46.3379 36.8303 46.1276 36.8102 45.9205 36.8102C45.4999 36.8102 45.1578 36.8877 44.8941 37.0428C44.6368 37.1921 44.5081 37.3988 44.5081 37.663C44.5081 37.8066 44.5489 37.9473 44.6305 38.0851C44.7184 38.2172 44.8439 38.3264 45.0071 38.4125C45.1766 38.4986 45.3838 38.5417 45.6286 38.5417C45.886 38.5417 46.1308 38.4958 46.363 38.4039C46.5953 38.3062 46.7805 38.1856 46.9186 38.0421Z" fill="white"/>
<path d="M49.6786 40.9108C49.5718 40.9108 49.462 40.8964 49.349 40.8677C49.2423 40.839 49.1324 40.7959 49.0194 40.7385L49.3019 40.2216C49.3584 40.2503 49.4118 40.2704 49.462 40.2819C49.5185 40.2991 49.5718 40.3077 49.6221 40.3077C49.7727 40.3077 49.914 40.2417 50.0458 40.1096C50.1839 39.9833 50.3126 39.788 50.4319 39.5238L50.6673 38.9811L48.511 34.5272H49.3867L51.0439 38.2574L52.5411 34.5272H53.3603L51.0627 39.7564C50.9497 40.0148 50.8211 40.2273 50.6767 40.3939C50.5323 40.5662 50.3754 40.6954 50.2059 40.7816C50.0364 40.8677 49.8606 40.9108 49.6786 40.9108Z" fill="white"/>
<path d="M56.8906 39.0241V37.2237C56.696 37.3098 56.492 37.373 56.2785 37.4132C56.0714 37.4534 55.8423 37.4735 55.5912 37.4735C55.0576 37.4735 54.6495 37.3471 54.3671 37.0944C54.0909 36.836 53.9528 36.4512 53.9528 35.9401V34.5272H54.7814V35.8367C54.7814 36.1985 54.863 36.4627 55.0262 36.6292C55.1894 36.7958 55.4499 36.8791 55.8077 36.8791C56.0086 36.8791 56.2063 36.859 56.4009 36.8188C56.6018 36.7786 56.765 36.724 56.8906 36.6551V34.5272H57.7286V39.0241H56.8906Z" fill="white"/>
<path d="M58.9654 39.0241V34.5272H59.794V36.388H62.3552V34.5272H63.1838V39.0241H62.3552V37.06H59.794V39.0241H58.9654Z" fill="white"/>
<path d="M66.5724 39.1103C66.202 39.1103 65.8662 39.05 65.5648 38.9294C65.2635 38.803 65.003 38.6336 64.7833 38.4211C64.5636 38.2029 64.3941 37.953 64.2748 37.6716C64.1556 37.3902 64.0959 37.0944 64.0959 36.7843C64.0959 36.4684 64.1556 36.1698 64.2748 35.8884C64.3941 35.607 64.5636 35.36 64.7833 35.1475C65.003 34.9293 65.2635 34.7598 65.5648 34.6392C65.8724 34.5129 66.2114 34.4497 66.5818 34.4497C66.9459 34.4497 67.2786 34.5129 67.5799 34.6392C67.8812 34.7598 68.1417 34.9293 68.3614 35.1475C68.5874 35.36 68.76 35.607 68.8793 35.8884C68.9986 36.1698 69.0582 36.4684 69.0582 36.7843C69.0582 37.0944 68.9986 37.3902 68.8793 37.6716C68.76 37.953 68.5906 38.2029 68.3708 38.4211C68.1511 38.6336 67.8875 38.803 67.5799 38.9294C67.2786 39.05 66.9427 39.1103 66.5724 39.1103ZM64.9434 36.7929C64.9434 37.1031 65.0156 37.3845 65.1599 37.6372C65.3106 37.8899 65.5083 38.0909 65.7532 38.2402C65.998 38.3838 66.271 38.4556 66.5724 38.4556C66.8737 38.4556 67.1467 38.3809 67.3916 38.2316C67.6427 38.0823 67.8404 37.8813 67.9848 37.6286C68.1354 37.3701 68.2108 37.0858 68.2108 36.7757C68.2108 36.4656 68.1354 36.1841 67.9848 35.9314C67.8404 35.6787 67.6427 35.4777 67.3916 35.3284C67.1467 35.1791 66.8737 35.1044 66.5724 35.1044C66.271 35.1044 65.998 35.182 65.7532 35.337C65.5083 35.4864 65.3106 35.6874 65.1599 35.9401C65.0156 36.1928 64.9434 36.477 64.9434 36.7929Z" fill="white"/>
<path d="M69.9022 37.0169V36.3277H72.68V37.0169H69.9022Z" fill="white"/>
<path d="M73.8462 39.0241V34.5272H77.9234V39.0241H77.0947V35.1992H74.6748V39.0241H73.8462Z" fill="white"/>
<path d="M81.8143 39.1103C81.4125 39.1103 81.0547 39.0184 80.7409 38.8346C80.427 38.6508 80.179 38.4182 79.997 38.1368V40.8591H79.1684V34.5272H79.9028V35.3715C80.0974 35.0958 80.3517 34.8747 80.6655 34.7081C80.9794 34.5359 81.3215 34.4497 81.6919 34.4497C82.0309 34.4497 82.3416 34.5129 82.6241 34.6392C82.9066 34.7656 83.1514 34.9379 83.3585 35.1561C83.5657 35.3744 83.7258 35.6242 83.8388 35.9056C83.958 36.1813 84.0177 36.4713 84.0177 36.7757C84.0177 37.2007 83.9235 37.5912 83.7352 37.9473C83.5531 38.3034 83.2958 38.5877 82.9631 38.8002C82.6304 39.0069 82.2474 39.1103 81.8143 39.1103ZM81.5601 38.4556C81.8049 38.4556 82.0246 38.4096 82.2192 38.3177C82.4201 38.2201 82.5896 38.0938 82.7277 37.9387C82.872 37.7779 82.9819 37.597 83.0572 37.396C83.1326 37.1949 83.1702 36.9882 83.1702 36.7757C83.1702 36.5517 83.1263 36.3392 83.0384 36.1382C82.9568 35.9372 82.8375 35.7592 82.6806 35.6041C82.5299 35.449 82.351 35.3284 82.1439 35.2423C81.943 35.1504 81.7233 35.1044 81.4847 35.1044C81.3341 35.1044 81.1771 35.1303 81.0139 35.182C80.857 35.2337 80.7063 35.3083 80.5619 35.4059C80.4176 35.4978 80.2952 35.6041 80.1947 35.7247C80.0943 35.8453 80.0284 35.9745 79.997 36.1124V37.396C80.0911 37.5912 80.2167 37.7693 80.3736 37.9301C80.5306 38.0909 80.7126 38.2201 80.9198 38.3177C81.1269 38.4096 81.3404 38.4556 81.5601 38.4556Z" fill="white"/>
<path d="M87.0878 39.1103C86.7174 39.1103 86.3816 39.05 86.0802 38.9294C85.7789 38.803 85.5184 38.6336 85.2987 38.4211C85.079 38.2029 84.9095 37.953 84.7902 37.6716C84.671 37.3902 84.6113 37.0944 84.6113 36.7843C84.6113 36.4684 84.671 36.1698 84.7902 35.8884C84.9095 35.607 85.079 35.36 85.2987 35.1475C85.5184 34.9293 85.7789 34.7598 86.0802 34.6392C86.3878 34.5129 86.7268 34.4497 87.0972 34.4497C87.4613 34.4497 87.794 34.5129 88.0953 34.6392C88.3966 34.7598 88.6571 34.9293 88.8768 35.1475C89.1028 35.36 89.2755 35.607 89.3947 35.8884C89.514 36.1698 89.5736 36.4684 89.5736 36.7843C89.5736 37.0944 89.514 37.3902 89.3947 37.6716C89.2755 37.953 89.106 38.2029 88.8863 38.4211C88.6665 38.6336 88.4029 38.803 88.0953 38.9294C87.794 39.05 87.4581 39.1103 87.0878 39.1103ZM85.4588 36.7929C85.4588 37.1031 85.531 37.3845 85.6754 37.6372C85.826 37.8899 86.0238 38.0909 86.2686 38.2402C86.5134 38.3838 86.7865 38.4556 87.0878 38.4556C87.3891 38.4556 87.6622 38.3809 87.907 38.2316C88.1581 38.0823 88.3558 37.8813 88.5002 37.6286C88.6509 37.3701 88.7262 37.0858 88.7262 36.7757C88.7262 36.4656 88.6509 36.1841 88.5002 35.9314C88.3558 35.6787 88.1581 35.4777 87.907 35.3284C87.6622 35.1791 87.3891 35.1044 87.0878 35.1044C86.7865 35.1044 86.5134 35.182 86.2686 35.337C86.0238 35.4864 85.826 35.6874 85.6754 35.9401C85.531 36.1928 85.4588 36.477 85.4588 36.7929Z" fill="white"/>
<path d="M90.4741 39.0241V34.5359H91.3027V38.0076L94.0523 34.5272H94.8056V39.0241H93.9769V35.6213L91.2651 39.0241H90.4741Z" fill="white"/>
<path d="M97.5702 39.0844C97.0931 39.0844 96.6882 39.004 96.3555 38.8432C96.0291 38.6767 95.778 38.447 95.6022 38.1541L96.2802 37.8784C96.3932 38.0622 96.5533 38.2057 96.7604 38.3091C96.9739 38.4125 97.2312 38.4642 97.5326 38.4642C97.8904 38.4642 98.1729 38.3924 98.38 38.2488C98.5872 38.1052 98.6907 37.9128 98.6907 37.6716C98.6907 37.4534 98.606 37.2782 98.4365 37.1461C98.2733 37.0083 98.041 36.9365 97.7397 36.9308H97.2407V36.4311H97.768C97.8998 36.4311 98.0159 36.4024 98.1164 36.345C98.2231 36.2818 98.3047 36.1985 98.3612 36.0951C98.424 35.9917 98.4553 35.8769 98.4553 35.7505C98.4553 35.5495 98.3769 35.3887 98.2199 35.2681C98.063 35.1418 97.8276 35.0786 97.5137 35.0786C97.2564 35.0786 97.0398 35.1245 96.864 35.2164C96.6945 35.3083 96.5564 35.4461 96.4497 35.6299L95.8188 35.3198C95.9758 35.0499 96.2017 34.8402 96.4968 34.6909C96.7981 34.5359 97.1496 34.4583 97.5514 34.4583C97.8715 34.4583 98.154 34.5071 98.3988 34.6048C98.6499 34.6967 98.8445 34.8316 98.9826 35.0097C99.127 35.1877 99.1992 35.4031 99.1992 35.6558C99.1992 35.8683 99.1427 36.0664 99.0297 36.2502C98.923 36.4282 98.7629 36.5632 98.5495 36.6551C98.8445 36.7355 99.0705 36.8762 99.2275 37.0772C99.3844 37.2725 99.4629 37.5051 99.4629 37.775C99.4629 38.0507 99.3813 38.2861 99.218 38.4814C99.0548 38.6767 98.832 38.826 98.5495 38.9294C98.267 39.0328 97.9406 39.0844 97.5702 39.0844Z" fill="white"/>
<path d="M100.355 39.0241V34.5272H102.897C103.192 34.5272 103.437 34.5818 103.632 34.6909C103.826 34.7943 103.971 34.9293 104.065 35.0958C104.165 35.2624 104.215 35.4404 104.215 35.6299C104.215 35.8711 104.153 36.0894 104.027 36.2847C103.902 36.4742 103.72 36.6178 103.481 36.7154C103.763 36.7901 103.993 36.925 104.168 37.1203C104.344 37.3098 104.432 37.5453 104.432 37.8267C104.432 38.0794 104.366 38.2948 104.234 38.4728C104.102 38.6508 103.917 38.7887 103.679 38.8863C103.44 38.9782 103.164 39.0241 102.85 39.0241H100.355ZM101.146 38.49H102.831C102.982 38.49 103.117 38.4556 103.236 38.3867C103.362 38.3177 103.459 38.2258 103.528 38.111C103.597 37.9961 103.632 37.8755 103.632 37.7492C103.632 37.6113 103.597 37.4878 103.528 37.3787C103.465 37.2639 103.374 37.1748 103.255 37.1117C103.142 37.0428 103.01 37.0083 102.86 37.0083H101.146V38.49ZM101.146 36.5086H102.681C102.831 36.5086 102.963 36.4742 103.076 36.4053C103.189 36.3306 103.277 36.2358 103.34 36.121C103.403 36.0061 103.434 35.8855 103.434 35.7592C103.434 35.5696 103.365 35.4059 103.227 35.2681C103.095 35.1303 102.922 35.0614 102.709 35.0614H101.146V36.5086Z" fill="white"/>
<path d="M107.539 39.1103C107.168 39.1103 106.833 39.05 106.531 38.9294C106.23 38.803 105.969 38.6336 105.75 38.4211C105.53 38.2029 105.361 37.953 105.241 37.6716C105.122 37.3902 105.062 37.0944 105.062 36.7843C105.062 36.4684 105.122 36.1698 105.241 35.8884C105.361 35.607 105.53 35.36 105.75 35.1475C105.969 34.9293 106.23 34.7598 106.531 34.6392C106.839 34.5129 107.178 34.4497 107.548 34.4497C107.912 34.4497 108.245 34.5129 108.546 34.6392C108.848 34.7598 109.108 34.9293 109.328 35.1475C109.554 35.36 109.727 35.607 109.846 35.8884C109.965 36.1698 110.025 36.4684 110.025 36.7843C110.025 37.0944 109.965 37.3902 109.846 37.6716C109.727 37.953 109.557 38.2029 109.337 38.4211C109.118 38.6336 108.854 38.803 108.546 38.9294C108.245 39.05 107.909 39.1103 107.539 39.1103ZM105.91 36.7929C105.91 37.1031 105.982 37.3845 106.126 37.6372C106.277 37.8899 106.475 38.0909 106.72 38.2402C106.964 38.3838 107.238 38.4556 107.539 38.4556C107.84 38.4556 108.113 38.3809 108.358 38.2316C108.609 38.0823 108.807 37.8813 108.951 37.6286C109.102 37.3701 109.177 37.0858 109.177 36.7757C109.177 36.4656 109.102 36.1841 108.951 35.9314C108.807 35.6787 108.609 35.4777 108.358 35.3284C108.113 35.1791 107.84 35.1044 107.539 35.1044C107.238 35.1044 106.964 35.182 106.72 35.337C106.475 35.4864 106.277 35.6874 106.126 35.9401C105.982 36.1928 105.91 36.477 105.91 36.7929Z" fill="white"/>
<path d="M110.388 40.0838V38.3522H110.492C110.63 38.3522 110.756 38.3149 110.869 38.2402C110.988 38.1655 111.092 38.0363 111.179 37.8525C111.274 37.663 111.349 37.4046 111.405 37.0772C111.462 36.7498 111.5 36.3335 111.518 35.8281L111.565 34.5272H114.908V38.3522H115.577V40.0838H114.842V39.0241H111.123V40.0838H110.388ZM111.65 38.3522H114.08V35.1992H112.3L112.272 35.897C112.253 36.3852 112.215 36.7958 112.159 37.1289C112.108 37.4563 112.039 37.7176 111.952 37.9128C111.87 38.1081 111.769 38.2546 111.65 38.3522Z" fill="white"/>
<path d="M118.579 39.1103C118.208 39.1103 117.869 39.05 117.562 38.9294C117.261 38.803 116.997 38.6307 116.771 38.4125C116.551 38.1943 116.379 37.9444 116.253 37.663C116.134 37.3816 116.074 37.083 116.074 36.7671C116.074 36.3421 116.178 35.9544 116.385 35.6041C116.592 35.2538 116.884 34.9752 117.261 34.7685C117.637 34.556 118.073 34.4497 118.569 34.4497C119.053 34.4497 119.473 34.5502 119.831 34.7512C120.195 34.9465 120.465 35.2107 120.641 35.5438L119.831 35.7764C119.706 35.5639 119.53 35.4002 119.304 35.2853C119.078 35.1647 118.827 35.1044 118.551 35.1044C118.249 35.1044 117.973 35.1762 117.722 35.3198C117.477 35.4634 117.283 35.6615 117.138 35.9142C116.994 36.1612 116.922 36.4455 116.922 36.7671C116.922 37.083 116.994 37.3701 117.138 37.6286C117.289 37.8813 117.487 38.0823 117.731 38.2316C117.982 38.3809 118.259 38.4556 118.56 38.4556C118.755 38.4556 118.94 38.424 119.116 38.3608C119.298 38.2976 119.454 38.2144 119.586 38.111C119.724 38.0019 119.819 37.8841 119.869 37.7578L120.679 37.9818C120.578 38.2 120.424 38.3953 120.217 38.5676C120.016 38.7341 119.775 38.8662 119.492 38.9638C119.216 39.0615 118.911 39.1103 118.579 39.1103Z" fill="white"/>
<path d="M122.719 39.0241V35.1992H121.024V34.5272H125.243V35.1992H123.548V39.0241H122.719Z" fill="white"/>
<path d="M125.971 39.0241V34.5272H128.514C128.809 34.5272 129.054 34.5818 129.248 34.6909C129.443 34.7943 129.587 34.9293 129.681 35.0958C129.782 35.2624 129.832 35.4404 129.832 35.6299C129.832 35.8711 129.769 36.0894 129.644 36.2847C129.518 36.4742 129.336 36.6178 129.098 36.7154C129.38 36.7901 129.609 36.925 129.785 37.1203C129.961 37.3098 130.049 37.5453 130.049 37.8267C130.049 38.0794 129.983 38.2948 129.851 38.4728C129.719 38.6508 129.534 38.7887 129.295 38.8863C129.057 38.9782 128.781 39.0241 128.467 39.0241H125.971ZM126.762 38.49H128.448C128.599 38.49 128.734 38.4556 128.853 38.3867C128.978 38.3177 129.076 38.2258 129.145 38.111C129.214 37.9961 129.248 37.8755 129.248 37.7492C129.248 37.6113 129.214 37.4878 129.145 37.3787C129.082 37.2639 128.991 37.1748 128.872 37.1117C128.759 37.0428 128.627 37.0083 128.476 37.0083H126.762V38.49ZM126.762 36.5086H128.297C128.448 36.5086 128.58 36.4742 128.693 36.4053C128.806 36.3306 128.894 36.2358 128.956 36.121C129.019 36.0061 129.051 35.8855 129.051 35.7592C129.051 35.5696 128.982 35.4059 128.843 35.2681C128.712 35.1303 128.539 35.0614 128.326 35.0614H126.762V36.5086Z" fill="white"/>
<path d="M133.184 39.1103C132.813 39.1103 132.474 39.05 132.167 38.9294C131.865 38.803 131.602 38.6336 131.376 38.4211C131.156 38.2029 130.984 37.953 130.858 37.6716C130.739 37.3902 130.679 37.0916 130.679 36.7757C130.679 36.3507 130.786 35.963 130.999 35.6127C131.213 35.2624 131.508 34.981 131.884 34.7685C132.267 34.556 132.704 34.4497 133.193 34.4497C133.689 34.4497 134.119 34.5588 134.483 34.7771C134.854 34.9896 135.139 35.271 135.34 35.6213C135.547 35.9659 135.651 36.3392 135.651 36.7412C135.651 36.7987 135.648 36.8561 135.641 36.9135C135.641 36.9652 135.638 37.0054 135.632 37.0341H131.555C131.58 37.327 131.668 37.5884 131.818 37.8181C131.975 38.0421 132.176 38.2201 132.421 38.3522C132.666 38.4785 132.93 38.5417 133.212 38.5417C133.513 38.5417 133.796 38.4728 134.059 38.335C134.329 38.1971 134.515 38.0162 134.615 37.7922L135.331 37.9731C135.224 38.1914 135.064 38.3867 134.85 38.5589C134.643 38.7312 134.395 38.8662 134.107 38.9638C133.824 39.0615 133.516 39.1103 133.184 39.1103ZM131.527 36.5086H134.879C134.854 36.2157 134.763 35.9573 134.606 35.7333C134.449 35.5093 134.248 35.3342 134.003 35.2078C133.758 35.0815 133.488 35.0183 133.193 35.0183C132.904 35.0183 132.638 35.0815 132.393 35.2078C132.148 35.3342 131.947 35.5093 131.79 35.7333C131.639 35.9573 131.552 36.2157 131.527 36.5086Z" fill="white"/>
<path d="M136.468 39.0241V34.5272H137.297V36.388H139.858V34.5272H140.687V39.0241H139.858V37.06H137.297V39.0241H136.468Z" fill="white"/>
<path d="M141.919 39.0241V34.5272H142.748V36.388H145.309V34.5272H146.137V39.0241H145.309V37.06H142.748V39.0241H141.919Z" fill="white"/>
<path d="M149.526 39.1103C149.156 39.1103 148.82 39.05 148.518 38.9294C148.217 38.803 147.957 38.6336 147.737 38.4211C147.517 38.2029 147.348 37.953 147.228 37.6716C147.109 37.3902 147.05 37.0944 147.05 36.7843C147.05 36.4684 147.109 36.1698 147.228 35.8884C147.348 35.607 147.517 35.36 147.737 35.1475C147.957 34.9293 148.217 34.7598 148.518 34.6392C148.826 34.5129 149.165 34.4497 149.535 34.4497C149.899 34.4497 150.232 34.5129 150.533 34.6392C150.835 34.7598 151.095 34.9293 151.315 35.1475C151.541 35.36 151.714 35.607 151.833 35.8884C151.952 36.1698 152.012 36.4684 152.012 36.7843C152.012 37.0944 151.952 37.3902 151.833 37.6716C151.714 37.953 151.544 38.2029 151.324 38.4211C151.105 38.6336 150.841 38.803 150.533 38.9294C150.232 39.05 149.896 39.1103 149.526 39.1103ZM147.897 36.7929C147.897 37.1031 147.969 37.3845 148.114 37.6372C148.264 37.8899 148.462 38.0909 148.707 38.2402C148.952 38.3838 149.225 38.4556 149.526 38.4556C149.827 38.4556 150.1 38.3809 150.345 38.2316C150.596 38.0823 150.794 37.8813 150.938 37.6286C151.089 37.3701 151.164 37.0858 151.164 36.7757C151.164 36.4656 151.089 36.1841 150.938 35.9314C150.794 35.6787 150.596 35.4777 150.345 35.3284C150.1 35.1791 149.827 35.1044 149.526 35.1044C149.225 35.1044 148.952 35.182 148.707 35.337C148.462 35.4864 148.264 35.6874 148.114 35.9401C147.969 36.1928 147.897 36.477 147.897 36.7929Z" fill="white"/>
<path d="M155.097 39.1103C154.727 39.1103 154.388 39.05 154.08 38.9294C153.779 38.803 153.515 38.6336 153.289 38.4211C153.069 38.2029 152.897 37.953 152.771 37.6716C152.652 37.3902 152.592 37.0916 152.592 36.7757C152.592 36.3507 152.699 35.963 152.912 35.6127C153.126 35.2624 153.421 34.981 153.797 34.7685C154.18 34.556 154.617 34.4497 155.106 34.4497C155.602 34.4497 156.032 34.5588 156.396 34.7771C156.767 34.9896 157.052 35.271 157.253 35.6213C157.46 35.9659 157.564 36.3392 157.564 36.7412C157.564 36.7987 157.561 36.8561 157.554 36.9135C157.554 36.9652 157.551 37.0054 157.545 37.0341H153.468C153.493 37.327 153.581 37.5884 153.732 37.8181C153.888 38.0421 154.089 38.2201 154.334 38.3522C154.579 38.4785 154.843 38.5417 155.125 38.5417C155.426 38.5417 155.709 38.4728 155.973 38.335C156.242 38.1971 156.428 38.0162 156.528 37.7922L157.244 37.9731C157.137 38.1914 156.977 38.3867 156.764 38.5589C156.556 38.7312 156.308 38.8662 156.02 38.9638C155.737 39.0615 155.43 39.1103 155.097 39.1103ZM153.44 36.5086H156.792C156.767 36.2157 156.676 35.9573 156.519 35.7333C156.362 35.5093 156.161 35.3342 155.916 35.2078C155.671 35.0815 155.401 35.0183 155.106 35.0183C154.818 35.0183 154.551 35.0815 154.306 35.2078C154.061 35.3342 153.86 35.5093 153.703 35.7333C153.553 35.9573 153.465 36.2157 153.44 36.5086Z" fill="white"/>
<path d="M160.669 39.0241V34.5272H164.746V39.0241H163.917V35.1992H161.497V39.0241H160.669Z" fill="white"/>
<path d="M168.637 39.1103C168.235 39.1103 167.877 39.0184 167.564 38.8346C167.25 38.6508 167.002 38.4182 166.82 38.1368V40.8591H165.991V34.5272H166.726V35.3715C166.92 35.0958 167.174 34.8747 167.488 34.7081C167.802 34.5359 168.144 34.4497 168.515 34.4497C168.854 34.4497 169.164 34.5129 169.447 34.6392C169.729 34.7656 169.974 34.9379 170.181 35.1561C170.388 35.3744 170.548 35.6242 170.661 35.9056C170.781 36.1813 170.84 36.4713 170.84 36.7757C170.84 37.2007 170.746 37.5912 170.558 37.9473C170.376 38.3034 170.118 38.5877 169.786 38.8002C169.453 39.0069 169.07 39.1103 168.637 39.1103ZM168.383 38.4556C168.628 38.4556 168.847 38.4096 169.042 38.3177C169.243 38.2201 169.412 38.0938 169.55 37.9387C169.695 37.7779 169.805 37.597 169.88 37.396C169.955 37.1949 169.993 36.9882 169.993 36.7757C169.993 36.5517 169.949 36.3392 169.861 36.1382C169.779 35.9372 169.66 35.7592 169.503 35.6041C169.353 35.449 169.174 35.3284 168.967 35.2423C168.766 35.1504 168.546 35.1044 168.307 35.1044C168.157 35.1044 168 35.1303 167.837 35.182C167.68 35.2337 167.529 35.3083 167.385 35.4059C167.24 35.4978 167.118 35.6041 167.017 35.7247C166.917 35.8453 166.851 35.9745 166.82 36.1124V37.396C166.914 37.5912 167.039 37.7693 167.196 37.9301C167.353 38.0909 167.535 38.2201 167.742 38.3177C167.95 38.4096 168.163 38.4556 168.383 38.4556Z" fill="white"/>
<path d="M173.939 39.1103C173.568 39.1103 173.229 39.05 172.922 38.9294C172.62 38.803 172.357 38.6336 172.131 38.4211C171.911 38.2029 171.738 37.953 171.613 37.6716C171.494 37.3902 171.434 37.0916 171.434 36.7757C171.434 36.3507 171.541 35.963 171.754 35.6127C171.968 35.2624 172.263 34.981 172.639 34.7685C173.022 34.556 173.458 34.4497 173.948 34.4497C174.444 34.4497 174.874 34.5588 175.238 34.7771C175.608 34.9896 175.894 35.271 176.095 35.6213C176.302 35.9659 176.406 36.3392 176.406 36.7412C176.406 36.7987 176.403 36.8561 176.396 36.9135C176.396 36.9652 176.393 37.0054 176.387 37.0341H172.31C172.335 37.327 172.423 37.5884 172.573 37.8181C172.73 38.0421 172.931 38.2201 173.176 38.3522C173.421 38.4785 173.684 38.5417 173.967 38.5417C174.268 38.5417 174.551 38.4728 174.814 38.335C175.084 38.1971 175.27 38.0162 175.37 37.7922L176.086 37.9731C175.979 38.1914 175.819 38.3867 175.605 38.5589C175.398 38.7312 175.15 38.8662 174.861 38.9638C174.579 39.0615 174.271 39.1103 173.939 39.1103ZM172.281 36.5086H175.634C175.608 36.2157 175.517 35.9573 175.361 35.7333C175.204 35.5093 175.003 35.3342 174.758 35.2078C174.513 35.0815 174.243 35.0183 173.948 35.0183C173.659 35.0183 173.393 35.0815 173.148 35.2078C172.903 35.3342 172.702 35.5093 172.545 35.7333C172.394 35.9573 172.307 36.2157 172.281 36.5086Z" fill="white"/>
<path d="M176.687 40.0838V38.3522H176.79C176.928 38.3522 177.054 38.3149 177.167 38.2402C177.286 38.1655 177.39 38.0363 177.477 37.8525C177.572 37.663 177.647 37.4046 177.703 37.0772C177.76 36.7498 177.798 36.3335 177.816 35.8281L177.864 34.5272H181.206V38.3522H181.875V40.0838H181.14V39.0241H177.421V40.0838H176.687ZM177.948 38.3522H180.378V35.1992H178.598L178.57 35.897C178.551 36.3852 178.513 36.7958 178.457 37.1289C178.407 37.4563 178.337 37.7176 178.25 37.9128C178.168 38.1081 178.068 38.2546 177.948 38.3522Z" fill="white"/>
<path d="M182.692 39.0241V34.5272H186.77V39.0241H185.941V35.1992H183.521V39.0241H182.692Z" fill="white"/>
<path d="M190.66 39.1103C190.259 39.1103 189.901 39.0184 189.587 38.8346C189.273 38.6508 189.025 38.4182 188.843 38.1368V40.8591H188.015V34.5272H188.749V35.3715C188.944 35.0958 189.198 34.8747 189.512 34.7081C189.826 34.5359 190.168 34.4497 190.538 34.4497C190.877 34.4497 191.188 34.5129 191.47 34.6392C191.753 34.7656 191.998 34.9379 192.205 35.1561C192.412 35.3744 192.572 35.6242 192.685 35.9056C192.804 36.1813 192.864 36.4713 192.864 36.7757C192.864 37.2007 192.77 37.5912 192.581 37.9473C192.399 38.3034 192.142 38.5877 191.809 38.8002C191.477 39.0069 191.094 39.1103 190.66 39.1103ZM190.406 38.4556C190.651 38.4556 190.871 38.4096 191.065 38.3177C191.266 38.2201 191.436 38.0938 191.574 37.9387C191.718 37.7779 191.828 37.597 191.903 37.396C191.979 37.1949 192.016 36.9882 192.016 36.7757C192.016 36.5517 191.972 36.3392 191.885 36.1382C191.803 35.9372 191.684 35.7592 191.527 35.6041C191.376 35.449 191.197 35.3284 190.99 35.2423C190.789 35.1504 190.569 35.1044 190.331 35.1044C190.18 35.1044 190.023 35.1303 189.86 35.182C189.703 35.2337 189.552 35.3083 189.408 35.4059C189.264 35.4978 189.141 35.6041 189.041 35.7247C188.94 35.8453 188.874 35.9745 188.843 36.1124V37.396C188.937 37.5912 189.063 37.7693 189.22 37.9301C189.377 38.0909 189.559 38.2201 189.766 38.3177C189.973 38.4096 190.186 38.4556 190.406 38.4556Z" fill="white"/>
<path d="M193.778 39.0241V34.5359H194.606V38.0076L197.356 34.5272H198.109V39.0241H197.28V35.6213L194.569 39.0241H193.778Z" fill="white"/>
<path d="M198.972 39.0241L200.365 37.215C200.045 37.1576 199.788 37.0198 199.593 36.8015C199.399 36.5776 199.301 36.2789 199.301 35.9056C199.301 35.6357 199.37 35.3973 199.508 35.1906C199.646 34.9838 199.838 34.8201 200.083 34.6995C200.334 34.5789 200.626 34.5186 200.958 34.5186H202.973V39.0241H202.145V37.3357H201.184L199.885 39.0241H198.972ZM201.015 36.7757H202.145V35.113H201.109C200.814 35.113 200.579 35.1906 200.403 35.3456C200.227 35.495 200.139 35.6874 200.139 35.9228C200.139 36.1583 200.211 36.3593 200.356 36.5259C200.506 36.6924 200.726 36.7757 201.015 36.7757Z" fill="white"/>
<path d="M205.415 39.0241V35.1992H203.72V34.5272H207.939V35.1992H206.244V39.0241H205.415Z" fill="white"/>
<path d="M208.668 39.0241V34.5359H209.496V38.0076L212.246 34.5272H212.999V39.0241H212.17V35.6213L209.459 39.0241H208.668Z" fill="white"/>
<path d="M216.404 39.1103C216.034 39.1103 215.695 39.05 215.387 38.9294C215.086 38.803 214.822 38.6336 214.596 38.4211C214.376 38.2029 214.204 37.953 214.078 37.6716C213.959 37.3902 213.899 37.0916 213.899 36.7757C213.899 36.3507 214.006 35.963 214.219 35.6127C214.433 35.2624 214.728 34.981 215.105 34.7685C215.488 34.556 215.924 34.4497 216.413 34.4497C216.909 34.4497 217.339 34.5588 217.703 34.7771C218.074 34.9896 218.359 35.271 218.56 35.6213C218.767 35.9659 218.871 36.3392 218.871 36.7412C218.871 36.7987 218.868 36.8561 218.862 36.9135C218.862 36.9652 218.858 37.0054 218.852 37.0341H214.775C214.8 37.327 214.888 37.5884 215.039 37.8181C215.196 38.0421 215.396 38.2201 215.641 38.3522C215.886 38.4785 216.15 38.5417 216.432 38.5417C216.734 38.5417 217.016 38.4728 217.28 38.335C217.55 38.1971 217.735 38.0162 217.835 37.7922L218.551 37.9731C218.444 38.1914 218.284 38.3867 218.071 38.5589C217.864 38.7312 217.616 38.8662 217.327 38.9638C217.044 39.0615 216.737 39.1103 216.404 39.1103ZM214.747 36.5086H218.099C218.074 36.2157 217.983 35.9573 217.826 35.7333C217.669 35.5093 217.468 35.3342 217.223 35.2078C216.978 35.0815 216.708 35.0183 216.413 35.0183C216.125 35.0183 215.858 35.0815 215.613 35.2078C215.368 35.3342 215.167 35.5093 215.01 35.7333C214.86 35.9573 214.772 36.2157 214.747 36.5086Z" fill="white"/>
</svg>
