<svg width="27" height="27" viewBox="0 0 27 27" fill="none" xmlns="http://www.w3.org/2000/svg">
<path fill-rule="evenodd" clip-rule="evenodd" d="M13.5 26C20.4036 26 26 20.4036 26 13.5C26 6.59644 20.4036 1 13.5 1C6.59644 1 1 6.59644 1 13.5C1 20.4036 6.59644 26 13.5 26Z" stroke="white"/>
<path fill-rule="evenodd" clip-rule="evenodd" d="M14.2948 8.70538C14.6843 8.31581 15.316 8.31581 15.7055 8.70538C16.0948 9.09466 16.0952 9.72569 15.7063 10.1154L11.8302 14L15.7063 17.8846C16.0952 18.2743 16.0948 18.9053 15.7055 19.2946C15.316 19.6842 14.6843 19.6842 14.2948 19.2946L9.00016 14L14.2948 8.70538Z" fill="white"/>
<mask id="mask0_671_55452" style="mask-type:luminance" maskUnits="userSpaceOnUse" x="9" y="8" width="7" height="12">
<path fill-rule="evenodd" clip-rule="evenodd" d="M14.2948 8.70538C14.6843 8.31581 15.316 8.31581 15.7055 8.70538C16.0948 9.09466 16.0952 9.72569 15.7063 10.1154L11.8302 14L15.7063 17.8846C16.0952 18.2743 16.0948 18.9053 15.7055 19.2946C15.316 19.6842 14.6843 19.6842 14.2948 19.2946L9.00016 14L14.2948 8.70538Z" fill="white"/>
</mask>
<g mask="url(#mask0_671_55452)">
<rect x="1" y="2" width="24" height="24" fill="white"/>
</g>
</svg>
