<svg width="255" height="42" viewBox="0 0 255 42" fill="none" xmlns="http://www.w3.org/2000/svg">
<path d="M37.02 21.9398C37.02 21.1209 37.1853 20.3209 37.5158 19.5397C37.8463 18.746 38.3282 18.0279 38.9617 17.3854C39.5951 16.7428 40.3663 16.2326 41.2751 15.8546C42.184 15.4641 43.2168 15.2688 44.3735 15.2688C45.7506 15.2688 46.9417 15.5397 47.947 16.0814C48.966 16.6232 49.7234 17.3287 50.2191 18.198L47.6165 19.861C47.3962 19.3823 47.1001 19.0106 46.7283 18.746C46.3703 18.4815 45.9709 18.2988 45.5302 18.198C45.1034 18.0846 44.6902 18.0279 44.2909 18.0279C43.6437 18.0279 43.0791 18.1476 42.5971 18.387C42.1151 18.6137 41.7158 18.9224 41.3991 19.313C41.0823 19.7035 40.8482 20.1382 40.6968 20.6169C40.5453 21.0957 40.4696 21.5744 40.4696 22.0532C40.4696 22.5823 40.5591 23.0926 40.7381 23.5839C40.9171 24.0753 41.1719 24.5099 41.5023 24.8879C41.8466 25.2658 42.2597 25.5682 42.7417 25.795C43.2237 26.0091 43.7538 26.1162 44.3322 26.1162C44.7453 26.1162 45.1653 26.0532 45.5922 25.9273C46.0191 25.8013 46.4116 25.606 46.7696 25.3414C47.1414 25.0642 47.4237 24.7052 47.6165 24.2642L50.3844 25.7572C50.0952 26.4123 49.6201 26.9729 48.9591 27.4391C48.2981 27.9052 47.5476 28.2643 46.7076 28.5163C45.8814 28.7556 45.062 28.8753 44.2496 28.8753C43.1892 28.8753 42.2115 28.6801 41.3164 28.2895C40.4351 27.8863 39.6709 27.3572 39.0236 26.7021C38.3902 26.0343 37.8945 25.291 37.5364 24.4721C37.1922 23.6406 37.02 22.7965 37.02 21.9398Z" fill="url(#paint0_linear_1223_3659)"/>
<path d="M52.1706 28.7619V15.3444H55.5582V24.3587L61.8789 15.3444H65.0393V28.7619H61.6517V19.8043L55.4136 28.7619H52.1706Z" fill="url(#paint1_linear_1223_3659)"/>
<path d="M80.5638 15.3444V28.7619H77.1762V23.2626H71.3306V28.7619H67.943V15.3444H71.3306V20.5413H77.1762V15.3444H80.5638Z" fill="url(#paint2_linear_1223_3659)"/>
<path d="M94.5493 18.0657H90.0876V28.7619H86.7V18.0657H82.2177V15.3444H94.5493V18.0657Z" fill="url(#paint3_linear_1223_3659)"/>
<path d="M96.2037 28.7619V15.3444H102.462C103.165 15.3444 103.805 15.4767 104.383 15.7413C104.976 15.9932 105.485 16.3397 105.912 16.7806C106.339 17.209 106.669 17.694 106.903 18.2358C107.138 18.7775 107.255 19.3319 107.255 19.8988C107.255 20.6673 107.055 21.398 106.656 22.091C106.27 22.7839 105.726 23.3508 105.024 23.7918C104.335 24.2201 103.516 24.4343 102.566 24.4343H99.5913V28.7619H96.2037ZM99.5913 21.7319H102.359C102.621 21.7319 102.862 21.6626 103.082 21.524C103.302 21.3854 103.481 21.1776 103.619 20.9004C103.757 20.6232 103.826 20.2831 103.826 19.8799C103.826 19.4642 103.743 19.124 103.578 18.8594C103.426 18.5823 103.227 18.3807 102.979 18.2547C102.745 18.1287 102.497 18.0657 102.235 18.0657H99.5913V21.7319Z" fill="url(#paint4_linear_1223_3659)"/>
<path d="M119.381 26.0406V28.7619H109.073V15.3444H119.195V18.0657H112.461V20.6736H118.244V23.1871H112.461V26.0406H119.381Z" fill="url(#paint5_linear_1223_3659)"/>
<path d="M121.521 28.7619V15.3444H124.909V24.3587L131.229 15.3444H134.39V28.7619H131.002V19.8043L124.764 28.7619H121.521ZM127.966 14.6263C127.153 14.6263 126.43 14.5003 125.797 14.2483C125.177 13.9837 124.695 13.631 124.351 13.19C124.007 12.7365 123.835 12.2262 123.835 11.6593H126.086C126.086 12.0373 126.245 12.3774 126.561 12.6798C126.878 12.9696 127.346 13.1144 127.966 13.1144C128.586 13.1144 129.054 12.9759 129.37 12.6987C129.701 12.4215 129.866 12.0751 129.866 11.6593H132.118C132.118 12.2262 131.946 12.7365 131.601 13.19C131.257 13.631 130.768 13.9837 130.135 14.2483C129.515 14.5003 128.792 14.6263 127.966 14.6263Z" fill="url(#paint6_linear_1223_3659)"/>
<path d="M136.467 31.3321V26.0406H137.294C137.652 26.0406 137.961 25.9147 138.223 25.6627C138.499 25.3981 138.733 24.995 138.925 24.4532C139.118 23.8989 139.27 23.1934 139.38 22.3366C139.49 21.4673 139.566 20.428 139.607 19.2185L139.731 15.3444H149.894V26.0406H151.897V31.3321H148.923V28.7619H139.421V31.3321H136.467ZM141.26 26.0406H146.506V18.0657H142.809L142.767 19.6531C142.74 20.7996 142.671 21.7949 142.561 22.639C142.464 23.4705 142.313 24.1697 142.106 24.7367C141.9 25.291 141.618 25.7257 141.26 26.0406Z" fill="url(#paint7_linear_1223_3659)"/>
<path d="M153.646 24.9257V22.2044H170.77V24.9257H153.646Z" fill="url(#paint8_linear_1223_3659)"/>
<path d="M173.342 28.7619V15.3444H176.709V20.5413H177.866L181.956 15.3444H185.715L180.468 21.8264L186.169 28.7619H182.059L177.762 23.3571H176.709V28.7619H173.342Z" fill="url(#paint9_linear_1223_3659)"/>
<path d="M191.622 15.3444H195.278L200.318 28.7619H196.848L195.712 25.7572H191.147L190.032 28.7619H186.561L191.622 15.3444ZM195.154 23.6217L193.44 18.4626L191.684 23.6217H195.154Z" fill="url(#paint10_linear_1223_3659)"/>
<path d="M206.866 28.8942C205.599 28.8942 204.456 28.6612 203.437 28.195C202.431 27.7289 201.633 27.08 201.041 26.2485L203.581 24.8123C203.912 25.2784 204.346 25.6501 204.883 25.9273C205.433 26.1918 206.067 26.3241 206.783 26.3241C207.595 26.3241 208.188 26.1729 208.559 25.8706C208.931 25.5682 209.117 25.1839 209.117 24.7178C209.117 24.4028 209.034 24.1256 208.869 23.8863C208.718 23.6469 208.47 23.4642 208.126 23.3382C207.795 23.1997 207.368 23.1304 206.845 23.1304H204.965V20.8059H206.866C207.292 20.8059 207.644 20.7492 207.919 20.6358C208.194 20.5098 208.394 20.3461 208.518 20.1445C208.656 19.9303 208.725 19.6846 208.725 19.4075C208.725 19.1303 208.649 18.8909 208.497 18.6893C208.36 18.4752 208.139 18.3114 207.836 18.198C207.533 18.072 207.141 18.009 206.659 18.009C205.888 18.009 205.234 18.1413 204.697 18.4059C204.16 18.6704 203.753 19.0106 203.478 19.4264L201.02 17.8389C201.64 17.0578 202.404 16.4342 203.313 15.968C204.235 15.4893 205.399 15.2499 206.804 15.2499C207.891 15.2499 208.821 15.3885 209.592 15.6657C210.363 15.9428 210.955 16.3586 211.369 16.9129C211.795 17.4547 212.009 18.1287 212.009 18.935C212.009 19.5145 211.851 20.0752 211.534 20.6169C211.231 21.1461 210.721 21.5618 210.005 21.8642C210.818 22.0784 211.444 22.4689 211.885 23.0359C212.326 23.6028 212.546 24.2642 212.546 25.0202C212.546 25.8643 212.298 26.5761 211.802 27.1556C211.307 27.7226 210.632 28.1572 209.778 28.4596C208.924 28.7493 207.953 28.8942 206.866 28.8942Z" fill="url(#paint11_linear_1223_3659)"/>
<path d="M218.067 15.3444H221.723L226.763 28.7619H223.293L222.157 25.7572H217.592L216.477 28.7619H213.007L218.067 15.3444ZM221.6 23.6217L219.885 18.4626L218.129 23.6217H221.6Z" fill="url(#paint12_linear_1223_3659)"/>
<path d="M240.829 15.3444V28.7619H237.441V23.2626H231.595V28.7619H228.208V15.3444H231.595V20.5413H237.441V15.3444H240.829Z" fill="url(#paint13_linear_1223_3659)"/>
<path d="M243.701 28.7619V15.3444H247.089V19.9744H249.815C250.903 19.9744 251.833 20.1508 252.604 20.5035C253.375 20.8563 253.967 21.3603 254.38 22.0154C254.793 22.6705 255 23.4453 255 24.3398C255 25.2217 254.8 25.9965 254.401 26.6643C254.002 27.332 253.43 27.8485 252.686 28.2139C251.943 28.5793 251.048 28.7619 250.001 28.7619H243.701ZM247.089 26.2296H249.505C249.974 26.2296 250.359 26.1477 250.662 25.9839C250.965 25.8202 251.185 25.5934 251.323 25.3036C251.475 25.0139 251.55 24.6926 251.55 24.3398C251.55 24.0123 251.475 23.7099 251.323 23.4327C251.185 23.1556 250.965 22.9351 250.662 22.7713C250.373 22.5949 249.987 22.5067 249.505 22.5067H247.089V26.2296Z" fill="url(#paint14_linear_1223_3659)"/>
<path d="M37.125 39.7861V35.2647H37.9581V37.1356H40.5332V35.2647H41.3663V39.7861H40.5332V37.8112H37.9581V39.7861H37.125Z" fill="#A60003"/>
<path d="M42.2266 38.4782C42.2266 38.1894 42.315 37.9411 42.4917 37.7333C42.6747 37.5196 42.924 37.355 43.2396 37.2396C43.5552 37.1241 43.9213 37.0663 44.3378 37.0663C44.5587 37.0663 44.7922 37.0836 45.0384 37.1183C45.2845 37.1472 45.5023 37.1934 45.6916 37.2569V36.9277C45.6916 36.5813 45.578 36.3099 45.3508 36.1136C45.1236 35.9115 44.8017 35.8104 44.3852 35.8104C44.1138 35.8104 43.8518 35.8566 43.5994 35.949C43.3532 36.0356 43.0913 36.1626 42.8136 36.3301L42.5106 35.7931C42.8325 35.591 43.1544 35.4408 43.4763 35.3427C43.7982 35.2387 44.1327 35.1868 44.4798 35.1868C45.111 35.1868 45.6096 35.3484 45.9757 35.6718C46.3417 35.9894 46.5248 36.434 46.5248 37.0057V38.9199C46.5248 39.0123 46.5437 39.0816 46.5816 39.1278C46.6257 39.1682 46.6952 39.1913 46.7898 39.1971V39.7861C46.7078 39.7976 46.6352 39.8063 46.5721 39.812C46.5153 39.8178 46.468 39.8207 46.4301 39.8207C46.2344 39.8207 46.0861 39.7716 45.9851 39.6735C45.8905 39.5753 45.8368 39.4714 45.8242 39.3616L45.8052 39.0758C45.5907 39.3299 45.3098 39.5262 44.9627 39.6648C44.6155 39.8034 44.2715 39.8727 43.9307 39.8727C43.6025 39.8727 43.309 39.812 43.0503 39.6908C42.7915 39.5637 42.5895 39.3963 42.4444 39.1884C42.2992 38.9748 42.2266 38.738 42.2266 38.4782ZM45.4455 38.7986C45.5212 38.7178 45.5812 38.637 45.6254 38.5561C45.6695 38.4695 45.6916 38.3973 45.6916 38.3396V37.7766C45.496 37.7073 45.2909 37.6553 45.0763 37.6207C44.8617 37.5802 44.6502 37.56 44.442 37.56C44.0191 37.56 43.6751 37.638 43.41 37.7939C43.1512 37.944 43.0219 38.1519 43.0219 38.4175C43.0219 38.5619 43.0629 38.7034 43.1449 38.8419C43.2333 38.9748 43.3595 39.0845 43.5236 39.1711C43.694 39.2577 43.9023 39.301 44.1485 39.301C44.4072 39.301 44.6534 39.2548 44.8869 39.1624C45.1204 39.0643 45.3066 38.943 45.4455 38.7986Z" fill="#A60003"/>
<path d="M48.2204 41.6829C48.1131 41.6829 48.0027 41.6685 47.8891 41.6396C47.7818 41.6108 47.6713 41.5675 47.5577 41.5097L47.8417 40.99C47.8986 41.0189 47.9522 41.0391 48.0027 41.0506C48.0595 41.068 48.1131 41.0766 48.1636 41.0766C48.3151 41.0766 48.4571 41.0102 48.5897 40.8774C48.7285 40.7504 48.8579 40.554 48.9778 40.2884L49.2145 39.7427L47.0465 35.2647H47.927L49.5932 39.0152L51.0985 35.2647H51.9221L49.6121 40.5223C49.4985 40.7821 49.3691 40.9958 49.224 41.1632C49.0788 41.3365 48.921 41.4664 48.7506 41.553C48.5802 41.6396 48.4035 41.6829 48.2204 41.6829Z" fill="#A60003"/>
<path d="M55.4716 39.7861V37.9758C55.276 38.0624 55.0709 38.1259 54.8563 38.1663C54.648 38.2068 54.4176 38.227 54.1652 38.227C53.6287 38.227 53.2184 38.0999 52.9344 37.8459C52.6567 37.586 52.5178 37.1991 52.5178 36.6852V35.2647H53.351V36.5813C53.351 36.9451 53.433 37.2107 53.5971 37.3781C53.7612 37.5456 54.0231 37.6293 54.3829 37.6293C54.5849 37.6293 54.7837 37.6091 54.9793 37.5687C55.1813 37.5283 55.3454 37.4734 55.4716 37.4041V35.2647H56.3142V39.7861H55.4716Z" fill="#A60003"/>
<path d="M57.5577 39.7861V35.2647H58.3908V37.1356H60.9659V35.2647H61.799V39.7861H60.9659V37.8112H58.3908V39.7861H57.5577Z" fill="#A60003"/>
<path d="M65.206 39.8727C64.8336 39.8727 64.496 39.812 64.193 39.6908C63.8901 39.5637 63.6281 39.3934 63.4072 39.1797C63.1863 38.9603 63.0159 38.7091 62.896 38.4262C62.7761 38.1432 62.7161 37.8459 62.7161 37.5341C62.7161 37.2165 62.7761 36.9162 62.896 36.6332C63.0159 36.3503 63.1863 36.102 63.4072 35.8884C63.6281 35.6689 63.8901 35.4986 64.193 35.3773C64.5023 35.2503 64.8431 35.1868 65.2155 35.1868C65.5815 35.1868 65.9161 35.2503 66.219 35.3773C66.522 35.4986 66.7839 35.6689 67.0048 35.8884C67.232 36.102 67.4056 36.3503 67.5255 36.6332C67.6454 36.9162 67.7054 37.2165 67.7054 37.5341C67.7054 37.8459 67.6454 38.1432 67.5255 38.4262C67.4056 38.7091 67.2352 38.9603 67.0143 39.1797C66.7934 39.3934 66.5283 39.5637 66.219 39.6908C65.9161 39.812 65.5784 39.8727 65.206 39.8727ZM63.5682 37.5427C63.5682 37.8545 63.6408 38.1375 63.7859 38.3915C63.9374 38.6456 64.1362 38.8477 64.3824 38.9979C64.6285 39.1422 64.9031 39.2144 65.206 39.2144C65.509 39.2144 65.7835 39.1393 66.0297 38.9892C66.2821 38.8391 66.4809 38.637 66.6261 38.3829C66.7776 38.123 66.8533 37.8372 66.8533 37.5254C66.8533 37.2136 66.7776 36.9306 66.6261 36.6766C66.4809 36.4225 66.2821 36.2204 66.0297 36.0702C65.7835 35.9201 65.509 35.845 65.206 35.845C64.9031 35.845 64.6285 35.923 64.3824 36.0789C64.1362 36.229 63.9374 36.4311 63.7859 36.6852C63.6408 36.9393 63.5682 37.2251 63.5682 37.5427Z" fill="#A60003"/>
<path d="M68.554 37.7679V37.075H71.3468V37.7679H68.554Z" fill="#A60003"/>
<path d="M72.5193 39.7861V35.2647H76.6187V39.7861H75.7856V35.9403H73.3525V39.7861H72.5193Z" fill="#A60003"/>
<path d="M80.5307 39.8727C80.1268 39.8727 79.767 39.7803 79.4515 39.5955C79.1359 39.4107 78.8866 39.1769 78.7036 38.8939V41.631H77.8704V35.2647H78.6089V36.1136C78.8045 35.8364 79.0602 35.6141 79.3757 35.4466C79.6913 35.2734 80.0353 35.1868 80.4077 35.1868C80.7485 35.1868 81.0609 35.2503 81.3449 35.3773C81.6289 35.5044 81.8751 35.6776 82.0834 35.897C82.2917 36.1164 82.4526 36.3676 82.5662 36.6506C82.6861 36.9277 82.7461 37.2193 82.7461 37.5254C82.7461 37.9527 82.6514 38.3453 82.4621 38.7034C82.279 39.0614 82.0203 39.3472 81.6857 39.5609C81.3512 39.7687 80.9662 39.8727 80.5307 39.8727ZM80.2751 39.2144C80.5213 39.2144 80.7422 39.1682 80.9378 39.0758C81.1398 38.9776 81.3102 38.8506 81.4491 38.6947C81.5942 38.533 81.7047 38.3511 81.7804 38.149C81.8562 37.9469 81.894 37.739 81.894 37.5254C81.894 37.3002 81.8498 37.0865 81.7615 36.8844C81.6794 36.6823 81.5595 36.5033 81.4017 36.3474C81.2503 36.1915 81.0704 36.0702 80.8621 35.9836C80.6601 35.8912 80.4392 35.845 80.1994 35.845C80.0479 35.845 79.8901 35.871 79.726 35.923C79.5682 35.975 79.4168 36.05 79.2716 36.1482C79.1264 36.2406 79.0033 36.3474 78.9024 36.4687C78.8014 36.5899 78.7351 36.7199 78.7036 36.8584V38.149C78.7982 38.3453 78.9245 38.5244 79.0822 38.686C79.24 38.8477 79.4231 38.9776 79.6313 39.0758C79.8396 39.1682 80.0542 39.2144 80.2751 39.2144Z" fill="#A60003"/>
<path d="M85.8329 39.8727C85.4605 39.8727 85.1228 39.812 84.8199 39.6908C84.5169 39.5637 84.255 39.3934 84.0341 39.1797C83.8132 38.9603 83.6428 38.7091 83.5228 38.4262C83.4029 38.1432 83.343 37.8459 83.343 37.5341C83.343 37.2165 83.4029 36.9162 83.5228 36.6332C83.6428 36.3503 83.8132 36.102 84.0341 35.8884C84.255 35.6689 84.5169 35.4986 84.8199 35.3773C85.1291 35.2503 85.4699 35.1868 85.8423 35.1868C86.2084 35.1868 86.5429 35.2503 86.8459 35.3773C87.1488 35.4986 87.4107 35.6689 87.6316 35.8884C87.8589 36.102 88.0324 36.3503 88.1523 36.6332C88.2723 36.9162 88.3322 37.2165 88.3322 37.5341C88.3322 37.8459 88.2723 38.1432 88.1523 38.4262C88.0324 38.7091 87.862 38.9603 87.6411 39.1797C87.4202 39.3934 87.1551 39.5637 86.8459 39.6908C86.5429 39.812 86.2052 39.8727 85.8329 39.8727ZM84.195 37.5427C84.195 37.8545 84.2676 38.1375 84.4128 38.3915C84.5642 38.6456 84.7631 38.8477 85.0092 38.9979C85.2554 39.1422 85.5299 39.2144 85.8329 39.2144C86.1358 39.2144 86.4104 39.1393 86.6565 38.9892C86.909 38.8391 87.1078 38.637 87.253 38.3829C87.4044 38.123 87.4802 37.8372 87.4802 37.5254C87.4802 37.2136 87.4044 36.9306 87.253 36.6766C87.1078 36.4225 86.909 36.2204 86.6565 36.0702C86.4104 35.9201 86.1358 35.845 85.8329 35.845C85.5299 35.845 85.2554 35.923 85.0092 36.0789C84.7631 36.229 84.5642 36.4311 84.4128 36.6852C84.2676 36.9393 84.195 37.2251 84.195 37.5427Z" fill="#A60003"/>
<path d="M89.2376 39.7861V35.2734H90.0707V38.764L92.8352 35.2647H93.5926V39.7861H92.7594V36.3647L90.0329 39.7861H89.2376Z" fill="#A60003"/>
<path d="M96.3722 39.8467C95.8926 39.8467 95.4855 39.7658 95.151 39.6042C94.8228 39.4367 94.5703 39.2057 94.3936 38.9112L95.0752 38.6341C95.1888 38.8188 95.3498 38.9632 95.5581 39.0671C95.7727 39.1711 96.0314 39.2231 96.3344 39.2231C96.6941 39.2231 96.9782 39.1509 97.1864 39.0065C97.3947 38.8622 97.4989 38.6687 97.4989 38.4262C97.4989 38.2068 97.4137 38.0306 97.2432 37.8978C97.0791 37.7593 96.8456 37.6871 96.5427 37.6813H96.0409V37.1789H96.5711C96.7036 37.1789 96.8204 37.1501 96.9214 37.0923C97.0286 37.0288 97.1107 36.9451 97.1675 36.8411C97.2306 36.7372 97.2622 36.6217 97.2622 36.4947C97.2622 36.2926 97.1833 36.1309 97.0255 36.0096C96.8677 35.8826 96.631 35.8191 96.3155 35.8191C96.0567 35.8191 95.8389 35.8653 95.6622 35.9576C95.4918 36.05 95.3529 36.1886 95.2456 36.3734L94.6113 36.0616C94.7691 35.7902 94.9963 35.5794 95.293 35.4293C95.5959 35.2734 95.9494 35.1954 96.3533 35.1954C96.6752 35.1954 96.9592 35.2445 97.2054 35.3427C97.4578 35.4351 97.6535 35.5708 97.7923 35.7498C97.9375 35.9288 98.0101 36.1453 98.0101 36.3994C98.0101 36.613 97.9533 36.8123 97.8397 36.997C97.7324 37.176 97.5714 37.3117 97.3569 37.4041C97.6535 37.485 97.8807 37.6264 98.0385 37.8285C98.1963 38.0249 98.2752 38.2587 98.2752 38.5301C98.2752 38.8073 98.1931 39.044 98.029 39.2404C97.8649 39.4367 97.6409 39.5868 97.3569 39.6908C97.0728 39.7947 96.7446 39.8467 96.3722 39.8467Z" fill="#A60003"/>
<path d="M99.172 39.7861V35.2647H101.728C102.025 35.2647 102.271 35.3196 102.467 35.4293C102.662 35.5332 102.807 35.6689 102.902 35.8364C103.003 36.0038 103.054 36.1828 103.054 36.3734C103.054 36.6159 102.99 36.8354 102.864 37.0317C102.738 37.2222 102.555 37.3666 102.315 37.4648C102.599 37.5398 102.83 37.6755 103.006 37.8719C103.183 38.0624 103.271 38.2992 103.271 38.5821C103.271 38.8362 103.205 39.0527 103.073 39.2317C102.94 39.4107 102.754 39.5493 102.514 39.6475C102.274 39.7399 101.996 39.7861 101.681 39.7861H99.172ZM99.9672 39.249H101.662C101.813 39.249 101.949 39.2144 102.069 39.1451C102.195 39.0758 102.293 38.9834 102.362 38.8679C102.432 38.7524 102.467 38.6312 102.467 38.5041C102.467 38.3656 102.432 38.2414 102.362 38.1317C102.299 38.0162 102.208 37.9267 102.088 37.8632C101.974 37.7939 101.842 37.7593 101.69 37.7593H99.9672V39.249ZM99.9672 37.2569H101.51C101.662 37.2569 101.794 37.2222 101.908 37.1529C102.022 37.0779 102.11 36.9826 102.173 36.8671C102.236 36.7516 102.268 36.6304 102.268 36.5033C102.268 36.3128 102.198 36.1482 102.06 36.0096C101.927 35.871 101.753 35.8017 101.539 35.8017H99.9672V37.2569Z" fill="#A60003"/>
<path d="M106.395 39.8727C106.023 39.8727 105.685 39.812 105.382 39.6908C105.079 39.5637 104.817 39.3934 104.596 39.1797C104.375 38.9603 104.205 38.7091 104.085 38.4262C103.965 38.1432 103.905 37.8459 103.905 37.5341C103.905 37.2165 103.965 36.9162 104.085 36.6332C104.205 36.3503 104.375 36.102 104.596 35.8884C104.817 35.6689 105.079 35.4986 105.382 35.3773C105.691 35.2503 106.032 35.1868 106.404 35.1868C106.771 35.1868 107.105 35.2503 107.408 35.3773C107.711 35.4986 107.973 35.6689 108.194 35.8884C108.421 36.102 108.595 36.3503 108.714 36.6332C108.834 36.9162 108.894 37.2165 108.894 37.5341C108.894 37.8459 108.834 38.1432 108.714 38.4262C108.595 38.7091 108.424 38.9603 108.203 39.1797C107.982 39.3934 107.717 39.5637 107.408 39.6908C107.105 39.812 106.767 39.8727 106.395 39.8727ZM104.757 37.5427C104.757 37.8545 104.83 38.1375 104.975 38.3915C105.126 38.6456 105.325 38.8477 105.571 38.9979C105.817 39.1422 106.092 39.2144 106.395 39.2144C106.698 39.2144 106.973 39.1393 107.219 38.9892C107.471 38.8391 107.67 38.637 107.815 38.3829C107.967 38.123 108.042 37.8372 108.042 37.5254C108.042 37.2136 107.967 36.9306 107.815 36.6766C107.67 36.4225 107.471 36.2204 107.219 36.0702C106.973 35.9201 106.698 35.845 106.395 35.845C106.092 35.845 105.817 35.923 105.571 36.0789C105.325 36.229 105.126 36.4311 104.975 36.6852C104.83 36.9393 104.757 37.2251 104.757 37.5427Z" fill="#A60003"/>
<path d="M109.26 40.8514V39.1105H109.364C109.503 39.1105 109.629 39.0729 109.743 38.9979C109.863 38.9228 109.967 38.7929 110.055 38.6081C110.15 38.4175 110.226 38.1577 110.283 37.8285C110.339 37.4994 110.377 37.0808 110.396 36.5726L110.444 35.2647H113.804V39.1105H114.477V40.8514H113.738V39.7861H109.999V40.8514H109.26ZM110.529 39.1105H112.971V35.9403H111.182L111.154 36.6419C111.135 37.1327 111.097 37.5456 111.04 37.8805C110.989 38.2097 110.92 38.4724 110.832 38.6687C110.75 38.865 110.649 39.0123 110.529 39.1105Z" fill="#A60003"/>
<path d="M117.495 39.8727C117.123 39.8727 116.782 39.812 116.472 39.6908C116.17 39.5637 115.904 39.3905 115.677 39.1711C115.456 38.9517 115.283 38.7005 115.157 38.4175C115.037 38.1346 114.977 37.8343 114.977 37.5167C114.977 37.0894 115.081 36.6997 115.289 36.3474C115.497 35.9952 115.791 35.7151 116.17 35.5072C116.548 35.2936 116.987 35.1868 117.485 35.1868C117.971 35.1868 118.394 35.2878 118.754 35.4899C119.12 35.6863 119.392 35.9519 119.568 36.2868L118.754 36.5206C118.628 36.307 118.451 36.1424 118.224 36.0269C117.997 35.9057 117.744 35.845 117.467 35.845C117.164 35.845 116.886 35.9172 116.633 36.0616C116.387 36.2059 116.192 36.4052 116.046 36.6592C115.901 36.9075 115.829 37.1934 115.829 37.5167C115.829 37.8343 115.901 38.123 116.046 38.3829C116.198 38.637 116.397 38.8391 116.643 38.9892C116.895 39.1393 117.173 39.2144 117.476 39.2144C117.672 39.2144 117.858 39.1826 118.035 39.1191C118.218 39.0556 118.375 38.9719 118.508 38.8679C118.647 38.7582 118.741 38.6398 118.792 38.5128L119.606 38.738C119.505 38.9574 119.351 39.1538 119.142 39.327C118.94 39.4945 118.697 39.6273 118.413 39.7254C118.136 39.8236 117.829 39.8727 117.495 39.8727Z" fill="#A60003"/>
<path d="M121.658 39.7861V35.9403H119.954V35.2647H124.195V35.9403H122.491V39.7861H121.658Z" fill="#A60003"/>
<path d="M124.928 39.7861V35.2647H127.484C127.781 35.2647 128.027 35.3196 128.222 35.4293C128.418 35.5332 128.563 35.6689 128.658 35.8364C128.759 36.0038 128.809 36.1828 128.809 36.3734C128.809 36.6159 128.746 36.8354 128.62 37.0317C128.494 37.2222 128.311 37.3666 128.071 37.4648C128.355 37.5398 128.585 37.6755 128.762 37.8719C128.939 38.0624 129.027 38.2992 129.027 38.5821C129.027 38.8362 128.961 39.0527 128.828 39.2317C128.696 39.4107 128.51 39.5493 128.27 39.6475C128.03 39.7399 127.752 39.7861 127.437 39.7861H124.928ZM125.723 39.249H127.418C127.569 39.249 127.705 39.2144 127.825 39.1451C127.951 39.0758 128.049 38.9834 128.118 38.8679C128.188 38.7524 128.222 38.6312 128.222 38.5041C128.222 38.3656 128.188 38.2414 128.118 38.1317C128.055 38.0162 127.964 37.9267 127.844 37.8632C127.73 37.7939 127.598 37.7593 127.446 37.7593H125.723V39.249ZM125.723 37.2569H127.266C127.418 37.2569 127.55 37.2222 127.664 37.1529C127.777 37.0779 127.866 36.9826 127.929 36.8671C127.992 36.7516 128.024 36.6304 128.024 36.5033C128.024 36.3128 127.954 36.1482 127.815 36.0096C127.683 35.871 127.509 35.8017 127.295 35.8017H125.723V37.2569Z" fill="#A60003"/>
<path d="M132.179 39.8727C131.807 39.8727 131.466 39.812 131.157 39.6908C130.854 39.5637 130.589 39.3934 130.362 39.1797C130.141 38.9603 129.967 38.7091 129.841 38.4262C129.721 38.1432 129.661 37.843 129.661 37.5254C129.661 37.0981 129.768 36.7083 129.983 36.3561C130.197 36.0038 130.494 35.7209 130.873 35.5072C131.258 35.2936 131.696 35.1868 132.189 35.1868C132.687 35.1868 133.12 35.2965 133.486 35.5159C133.858 35.7296 134.145 36.0125 134.347 36.3647C134.556 36.7112 134.66 37.0865 134.66 37.4907C134.66 37.5485 134.657 37.6062 134.65 37.664C134.65 37.7159 134.647 37.7564 134.641 37.7852H130.541C130.567 38.0797 130.655 38.3425 130.806 38.5734C130.964 38.7986 131.166 38.9776 131.412 39.1105C131.659 39.2375 131.924 39.301 132.208 39.301C132.511 39.301 132.795 39.2317 133.06 39.0931C133.331 38.9545 133.517 38.7727 133.618 38.5475L134.338 38.7293C134.23 38.9488 134.07 39.1451 133.855 39.3183C133.647 39.4916 133.397 39.6273 133.107 39.7254C132.823 39.8236 132.514 39.8727 132.179 39.8727ZM130.513 37.2569H133.883C133.858 36.9624 133.767 36.7025 133.609 36.4773C133.451 36.2521 133.249 36.076 133.003 35.949C132.757 35.8219 132.485 35.7584 132.189 35.7584C131.898 35.7584 131.63 35.8219 131.384 35.949C131.138 36.076 130.936 36.2521 130.778 36.4773C130.627 36.7025 130.538 36.9624 130.513 37.2569Z" fill="#A60003"/>
<path d="M135.482 39.7861V35.2647H136.315V37.1356H138.89V35.2647H139.723V39.7861H138.89V37.8112H136.315V39.7861H135.482Z" fill="#A60003"/>
<path d="M140.962 39.7861V35.2647H141.795V37.1356H144.37V35.2647H145.203V39.7861H144.37V37.8112H141.795V39.7861H140.962Z" fill="#A60003"/>
<path d="M148.61 39.8727C148.238 39.8727 147.9 39.812 147.597 39.6908C147.294 39.5637 147.032 39.3934 146.811 39.1797C146.591 38.9603 146.42 38.7091 146.3 38.4262C146.18 38.1432 146.12 37.8459 146.12 37.5341C146.12 37.2165 146.18 36.9162 146.3 36.6332C146.42 36.3503 146.591 36.102 146.811 35.8884C147.032 35.6689 147.294 35.4986 147.597 35.3773C147.906 35.2503 148.247 35.1868 148.62 35.1868C148.986 35.1868 149.32 35.2503 149.623 35.3773C149.926 35.4986 150.188 35.6689 150.409 35.8884C150.636 36.102 150.81 36.3503 150.93 36.6332C151.05 36.9162 151.11 37.2165 151.11 37.5341C151.11 37.8459 151.05 38.1432 150.93 38.4262C150.81 38.7091 150.639 38.9603 150.418 39.1797C150.198 39.3934 149.932 39.5637 149.623 39.6908C149.32 39.812 148.983 39.8727 148.61 39.8727ZM146.972 37.5427C146.972 37.8545 147.045 38.1375 147.19 38.3915C147.342 38.6456 147.54 38.8477 147.787 38.9979C148.033 39.1422 148.307 39.2144 148.61 39.2144C148.913 39.2144 149.188 39.1393 149.434 38.9892C149.686 38.8391 149.885 38.637 150.03 38.3829C150.182 38.123 150.258 37.8372 150.258 37.5254C150.258 37.2136 150.182 36.9306 150.03 36.6766C149.885 36.4225 149.686 36.2204 149.434 36.0702C149.188 35.9201 148.913 35.845 148.61 35.845C148.307 35.845 148.033 35.923 147.787 36.0789C147.54 36.229 147.342 36.4311 147.19 36.6852C147.045 36.9393 146.972 37.2251 146.972 37.5427Z" fill="#A60003"/>
<path d="M154.211 39.8727C153.839 39.8727 153.498 39.812 153.189 39.6908C152.886 39.5637 152.621 39.3934 152.394 39.1797C152.173 38.9603 151.999 38.7091 151.873 38.4262C151.753 38.1432 151.693 37.843 151.693 37.5254C151.693 37.0981 151.8 36.7083 152.015 36.3561C152.23 36.0038 152.526 35.7209 152.905 35.5072C153.29 35.2936 153.729 35.1868 154.221 35.1868C154.719 35.1868 155.152 35.2965 155.518 35.5159C155.89 35.7296 156.177 36.0125 156.379 36.3647C156.588 36.7112 156.692 37.0865 156.692 37.4907C156.692 37.5485 156.689 37.6062 156.682 37.664C156.682 37.7159 156.679 37.7564 156.673 37.7852H152.574C152.599 38.0797 152.687 38.3425 152.839 38.5734C152.996 38.7986 153.198 38.9776 153.445 39.1105C153.691 39.2375 153.956 39.301 154.24 39.301C154.543 39.301 154.827 39.2317 155.092 39.0931C155.363 38.9545 155.549 38.7727 155.65 38.5475L156.37 38.7293C156.263 38.9488 156.102 39.1451 155.887 39.3183C155.679 39.4916 155.43 39.6273 155.139 39.7254C154.855 39.8236 154.546 39.8727 154.211 39.8727ZM152.545 37.2569H155.915C155.89 36.9624 155.799 36.7025 155.641 36.4773C155.483 36.2521 155.281 36.076 155.035 35.949C154.789 35.8219 154.517 35.7584 154.221 35.7584C153.931 35.7584 153.662 35.8219 153.416 35.949C153.17 36.076 152.968 36.2521 152.81 36.4773C152.659 36.7025 152.57 36.9624 152.545 37.2569Z" fill="#A60003"/>
<path d="M159.814 39.7861V35.2647H163.913V39.7861H163.08V35.9403H160.647V39.7861H159.814Z" fill="#A60003"/>
<path d="M167.825 39.8727C167.421 39.8727 167.061 39.7803 166.746 39.5955C166.43 39.4107 166.181 39.1769 165.998 38.8939V41.631H165.165V35.2647H165.903V36.1136C166.099 35.8364 166.354 35.6141 166.67 35.4466C166.986 35.2734 167.33 35.1868 167.702 35.1868C168.043 35.1868 168.355 35.2503 168.639 35.3773C168.923 35.5044 169.169 35.6776 169.378 35.897C169.586 36.1164 169.747 36.3676 169.861 36.6506C169.98 36.9277 170.04 37.2193 170.04 37.5254C170.04 37.9527 169.946 38.3453 169.756 38.7034C169.573 39.0614 169.315 39.3472 168.98 39.5609C168.646 39.7687 168.261 39.8727 167.825 39.8727ZM167.569 39.2144C167.816 39.2144 168.036 39.1682 168.232 39.0758C168.434 38.9776 168.605 38.8506 168.743 38.6947C168.889 38.533 168.999 38.3511 169.075 38.149C169.15 37.9469 169.188 37.739 169.188 37.5254C169.188 37.3002 169.144 37.0865 169.056 36.8844C168.974 36.6823 168.854 36.5033 168.696 36.3474C168.545 36.1915 168.365 36.0702 168.156 35.9836C167.954 35.8912 167.734 35.845 167.494 35.845C167.342 35.845 167.184 35.871 167.02 35.923C166.863 35.975 166.711 36.05 166.566 36.1482C166.421 36.2406 166.298 36.3474 166.197 36.4687C166.096 36.5899 166.029 36.7199 165.998 36.8584V38.149C166.093 38.3453 166.219 38.5244 166.377 38.686C166.534 38.8477 166.717 38.9776 166.926 39.0758C167.134 39.1682 167.349 39.2144 167.569 39.2144Z" fill="#A60003"/>
<path d="M173.156 39.8727C172.783 39.8727 172.442 39.812 172.133 39.6908C171.83 39.5637 171.565 39.3934 171.338 39.1797C171.117 38.9603 170.943 38.7091 170.817 38.4262C170.697 38.1432 170.637 37.843 170.637 37.5254C170.637 37.0981 170.745 36.7083 170.959 36.3561C171.174 36.0038 171.47 35.7209 171.849 35.5072C172.234 35.2936 172.673 35.1868 173.165 35.1868C173.664 35.1868 174.096 35.2965 174.462 35.5159C174.834 35.7296 175.122 36.0125 175.324 36.3647C175.532 36.7112 175.636 37.0865 175.636 37.4907C175.636 37.5485 175.633 37.6062 175.627 37.664C175.627 37.7159 175.623 37.7564 175.617 37.7852H171.518C171.543 38.0797 171.631 38.3425 171.783 38.5734C171.941 38.7986 172.143 38.9776 172.389 39.1105C172.635 39.2375 172.9 39.301 173.184 39.301C173.487 39.301 173.771 39.2317 174.036 39.0931C174.307 38.9545 174.494 38.7727 174.595 38.5475L175.314 38.7293C175.207 38.9488 175.046 39.1451 174.831 39.3183C174.623 39.4916 174.374 39.6273 174.083 39.7254C173.799 39.8236 173.49 39.8727 173.156 39.8727ZM171.489 37.2569H174.86C174.834 36.9624 174.743 36.7025 174.585 36.4773C174.427 36.2521 174.225 36.076 173.979 35.949C173.733 35.8219 173.462 35.7584 173.165 35.7584C172.875 35.7584 172.606 35.8219 172.36 35.949C172.114 36.076 171.912 36.2521 171.754 36.4773C171.603 36.7025 171.515 36.9624 171.489 37.2569Z" fill="#A60003"/>
<path d="M175.918 40.8514V39.1105H176.022C176.161 39.1105 176.288 39.0729 176.401 38.9979C176.521 38.9228 176.625 38.7929 176.714 38.6081C176.808 38.4175 176.884 38.1577 176.941 37.8285C176.998 37.4994 177.035 37.0808 177.054 36.5726L177.102 35.2647H180.463V39.1105H181.135V40.8514H180.396V39.7861H176.657V40.8514H175.918ZM177.187 39.1105H179.629V35.9403H177.84L177.812 36.6419C177.793 37.1327 177.755 37.5456 177.698 37.8805C177.648 38.2097 177.578 38.4724 177.49 38.6687C177.408 38.865 177.307 39.0123 177.187 39.1105Z" fill="#A60003"/>
<path d="M181.957 39.7861V35.2647H186.056V39.7861H185.223V35.9403H182.79V39.7861H181.957Z" fill="#A60003"/>
<path d="M189.968 39.8727C189.564 39.8727 189.204 39.7803 188.889 39.5955C188.573 39.4107 188.324 39.1769 188.141 38.8939V41.631H187.308V35.2647H188.046V36.1136C188.242 35.8364 188.498 35.6141 188.813 35.4466C189.129 35.2734 189.473 35.1868 189.845 35.1868C190.186 35.1868 190.498 35.2503 190.782 35.3773C191.066 35.5044 191.312 35.6776 191.521 35.897C191.729 36.1164 191.89 36.3676 192.004 36.6506C192.124 36.9277 192.183 37.2193 192.183 37.5254C192.183 37.9527 192.089 38.3453 191.899 38.7034C191.716 39.0614 191.458 39.3472 191.123 39.5609C190.789 39.7687 190.404 39.8727 189.968 39.8727ZM189.713 39.2144C189.959 39.2144 190.18 39.1682 190.375 39.0758C190.577 38.9776 190.748 38.8506 190.886 38.6947C191.032 38.533 191.142 38.3511 191.218 38.149C191.294 37.9469 191.331 37.739 191.331 37.5254C191.331 37.3002 191.287 37.0865 191.199 36.8844C191.117 36.6823 190.997 36.5033 190.839 36.3474C190.688 36.1915 190.508 36.0702 190.299 35.9836C190.098 35.8912 189.877 35.845 189.637 35.845C189.485 35.845 189.328 35.871 189.163 35.923C189.006 35.975 188.854 36.05 188.709 36.1482C188.564 36.2406 188.441 36.3474 188.34 36.4687C188.239 36.5899 188.173 36.7199 188.141 36.8584V38.149C188.236 38.3453 188.362 38.5244 188.52 38.686C188.677 38.8477 188.86 38.9776 189.069 39.0758C189.277 39.1682 189.492 39.2144 189.713 39.2144Z" fill="#A60003"/>
<path d="M193.102 39.7861V35.2734H193.935V38.764L196.7 35.2647H197.457V39.7861H196.624V36.3647L193.898 39.7861H193.102Z" fill="#A60003"/>
<path d="M198.325 39.7861L199.726 37.9671C199.404 37.9094 199.145 37.7708 198.949 37.5514C198.754 37.3262 198.656 37.0259 198.656 36.6506C198.656 36.3792 198.725 36.1395 198.864 35.9317C199.003 35.7238 199.195 35.5592 199.442 35.438C199.694 35.3167 199.988 35.2561 200.322 35.2561H202.348V39.7861H201.515V38.0884H200.549L199.243 39.7861H198.325ZM200.379 37.5254H201.515V35.8537H200.474C200.177 35.8537 199.94 35.9317 199.764 36.0876C199.587 36.2377 199.498 36.4311 199.498 36.6679C199.498 36.9046 199.571 37.1067 199.716 37.2742C199.868 37.4417 200.089 37.5254 200.379 37.5254Z" fill="#A60003"/>
<path d="M204.803 39.7861V35.9403H203.099V35.2647H207.34V35.9403H205.636V39.7861H204.803Z" fill="#A60003"/>
<path d="M208.073 39.7861V35.2734H208.906V38.764L211.671 35.2647H212.428V39.7861H211.595V36.3647L208.868 39.7861H208.073Z" fill="#A60003"/>
<path d="M215.852 39.8727C215.479 39.8727 215.138 39.812 214.829 39.6908C214.526 39.5637 214.261 39.3934 214.034 39.1797C213.813 38.9603 213.639 38.7091 213.513 38.4262C213.393 38.1432 213.333 37.843 213.333 37.5254C213.333 37.0981 213.441 36.7083 213.655 36.3561C213.87 36.0038 214.166 35.7209 214.545 35.5072C214.93 35.2936 215.369 35.1868 215.861 35.1868C216.36 35.1868 216.792 35.2965 217.158 35.5159C217.53 35.7296 217.818 36.0125 218.02 36.3647C218.228 36.7112 218.332 37.0865 218.332 37.4907C218.332 37.5485 218.329 37.6062 218.323 37.664C218.323 37.7159 218.319 37.7564 218.313 37.7852H214.214C214.239 38.0797 214.327 38.3425 214.479 38.5734C214.637 38.7986 214.839 38.9776 215.085 39.1105C215.331 39.2375 215.596 39.301 215.88 39.301C216.183 39.301 216.467 39.2317 216.732 39.0931C217.003 38.9545 217.19 38.7727 217.291 38.5475L218.01 38.7293C217.903 38.9488 217.742 39.1451 217.527 39.3183C217.319 39.4916 217.07 39.6273 216.779 39.7254C216.495 39.8236 216.186 39.8727 215.852 39.8727ZM214.185 37.2569H217.556C217.53 36.9624 217.439 36.7025 217.281 36.4773C217.123 36.2521 216.921 36.076 216.675 35.949C216.429 35.8219 216.158 35.7584 215.861 35.7584C215.571 35.7584 215.302 35.8219 215.056 35.949C214.81 36.076 214.608 36.2521 214.45 36.4773C214.299 36.7025 214.211 36.9624 214.185 37.2569Z" fill="#A60003"/>
<path fill-rule="evenodd" clip-rule="evenodd" d="M24.0867 22.455V28.8553C24.0867 32.6404 20.7833 35.7029 16.7229 35.7029H15.1916V0.552979H14.2626V35.6857H12.7829C8.70533 35.6857 5.41917 32.6232 5.41917 28.8381V22.4378H4.43848V29.6295C4.43848 33.8448 8.17198 37.2686 12.7829 37.2686H16.7057C21.3167 37.2686 25.0502 33.8448 25.0502 29.6295V22.4378H24.0695L24.0867 22.455Z" fill="url(#paint15_linear_1223_3659)"/>
<path d="M26.0133 9.77497V5.7834C25.5832 5.38768 25.1015 5.04358 24.5681 4.73389V10.9793C26.3574 12.3385 27.5102 14.3687 27.5102 16.657V32.9502C27.5102 36.9418 23.9831 40.1935 19.6475 40.1935H9.84057C5.50489 40.1935 1.97785 36.959 1.97785 32.9502V16.657C1.97785 14.3687 3.13059 12.3385 4.91992 11.0137V8.82869V4.73389C4.38656 5.04358 3.88761 5.38768 3.45749 5.7834V9.79218C1.35847 11.4439 -0.000732422 13.9042 -0.000732422 16.657V32.9502C-0.000732422 37.9397 4.40377 42.0001 9.82336 42.0001H19.6475C25.0671 42.0001 29.4716 37.9569 29.4716 32.9502V16.657C29.4716 13.887 28.1124 11.4267 25.9961 9.77497H26.0133Z" fill="url(#paint16_linear_1223_3659)"/>
<path d="M6.8645 9.98121C7.77637 9.63711 8.77426 9.44785 9.82377 9.44785H11.0797H12.525V3.56372H11.0797V7.60691H9.82377C9.35924 7.60691 8.91191 7.64132 8.48178 7.71014V3.63254C7.98283 3.68416 7.32904 3.839 6.8645 3.97664V9.44785V9.98121Z" fill="url(#paint17_linear_1223_3659)"/>
<path d="M18.1336 9.44785H19.6648C20.7143 9.44785 21.695 9.6027 22.6069 9.9468V8.01983V3.92503C22.1424 3.78739 21.6606 3.70136 21.1617 3.63254V7.71014C20.6627 7.64132 20.1638 7.60691 19.6476 7.60691H18.1164V3.56372H16.6711V9.44785H18.1164H18.1336Z" fill="url(#paint18_linear_1223_3659)"/>
<path d="M1.97827 20.3905V18.6184C1.97827 18.6184 5.04077 17.3624 7.08818 17.3624C9.46248 17.3624 11.5443 18.8421 14.8305 19.0141V20.6486C13.0927 20.8551 8.41297 19.169 7.00215 19.1345C5.59134 19.1001 1.97827 20.3733 1.97827 20.3733V20.3905Z" fill="url(#paint19_linear_1223_3659)"/>
<path d="M27.6828 20.3905V18.6184C27.6828 18.6184 24.6203 17.3624 22.5728 17.3624C20.1985 17.3624 18.1167 18.8421 14.8306 19.0141V20.6486C16.5683 20.8551 21.2481 19.169 22.6589 19.1345C24.0697 19.1001 27.6828 20.3733 27.6828 20.3733V20.3905Z" fill="url(#paint20_linear_1223_3659)"/>
<defs>
<linearGradient id="paint0_linear_1223_3659" x1="146.197" y1="11.4388" x2="146.197" y2="33.4864" gradientUnits="userSpaceOnUse">
<stop stop-color="#D20509"/>
<stop offset="1" stop-color="#A60003"/>
</linearGradient>
<linearGradient id="paint1_linear_1223_3659" x1="146.197" y1="11.4388" x2="146.197" y2="33.4864" gradientUnits="userSpaceOnUse">
<stop stop-color="#D20509"/>
<stop offset="1" stop-color="#A60003"/>
</linearGradient>
<linearGradient id="paint2_linear_1223_3659" x1="146.197" y1="11.4388" x2="146.197" y2="33.4864" gradientUnits="userSpaceOnUse">
<stop stop-color="#D20509"/>
<stop offset="1" stop-color="#A60003"/>
</linearGradient>
<linearGradient id="paint3_linear_1223_3659" x1="146.197" y1="11.4388" x2="146.197" y2="33.4864" gradientUnits="userSpaceOnUse">
<stop stop-color="#D20509"/>
<stop offset="1" stop-color="#A60003"/>
</linearGradient>
<linearGradient id="paint4_linear_1223_3659" x1="146.197" y1="11.4388" x2="146.197" y2="33.4864" gradientUnits="userSpaceOnUse">
<stop stop-color="#D20509"/>
<stop offset="1" stop-color="#A60003"/>
</linearGradient>
<linearGradient id="paint5_linear_1223_3659" x1="146.197" y1="11.4388" x2="146.197" y2="33.4864" gradientUnits="userSpaceOnUse">
<stop stop-color="#D20509"/>
<stop offset="1" stop-color="#A60003"/>
</linearGradient>
<linearGradient id="paint6_linear_1223_3659" x1="146.197" y1="11.4388" x2="146.197" y2="33.4864" gradientUnits="userSpaceOnUse">
<stop stop-color="#D20509"/>
<stop offset="1" stop-color="#A60003"/>
</linearGradient>
<linearGradient id="paint7_linear_1223_3659" x1="146.197" y1="11.4388" x2="146.197" y2="33.4864" gradientUnits="userSpaceOnUse">
<stop stop-color="#D20509"/>
<stop offset="1" stop-color="#A60003"/>
</linearGradient>
<linearGradient id="paint8_linear_1223_3659" x1="146.197" y1="11.4388" x2="146.197" y2="33.4864" gradientUnits="userSpaceOnUse">
<stop stop-color="#D20509"/>
<stop offset="1" stop-color="#A60003"/>
</linearGradient>
<linearGradient id="paint9_linear_1223_3659" x1="146.197" y1="11.4388" x2="146.197" y2="33.4864" gradientUnits="userSpaceOnUse">
<stop stop-color="#D20509"/>
<stop offset="1" stop-color="#A60003"/>
</linearGradient>
<linearGradient id="paint10_linear_1223_3659" x1="146.197" y1="11.4388" x2="146.197" y2="33.4864" gradientUnits="userSpaceOnUse">
<stop stop-color="#D20509"/>
<stop offset="1" stop-color="#A60003"/>
</linearGradient>
<linearGradient id="paint11_linear_1223_3659" x1="146.197" y1="11.4388" x2="146.197" y2="33.4864" gradientUnits="userSpaceOnUse">
<stop stop-color="#D20509"/>
<stop offset="1" stop-color="#A60003"/>
</linearGradient>
<linearGradient id="paint12_linear_1223_3659" x1="146.197" y1="11.4388" x2="146.197" y2="33.4864" gradientUnits="userSpaceOnUse">
<stop stop-color="#D20509"/>
<stop offset="1" stop-color="#A60003"/>
</linearGradient>
<linearGradient id="paint13_linear_1223_3659" x1="146.197" y1="11.4388" x2="146.197" y2="33.4864" gradientUnits="userSpaceOnUse">
<stop stop-color="#D20509"/>
<stop offset="1" stop-color="#A60003"/>
</linearGradient>
<linearGradient id="paint14_linear_1223_3659" x1="146.197" y1="11.4388" x2="146.197" y2="33.4864" gradientUnits="userSpaceOnUse">
<stop stop-color="#D20509"/>
<stop offset="1" stop-color="#A60003"/>
</linearGradient>
<linearGradient id="paint15_linear_1223_3659" x1="26.7821" y1="37.2686" x2="0.855896" y2="2.93464" gradientUnits="userSpaceOnUse">
<stop stop-color="#A80000"/>
<stop offset="1" stop-color="#D10509"/>
</linearGradient>
<linearGradient id="paint16_linear_1223_3659" x1="31.9481" y1="42.0001" x2="9.16363" y2="-0.506841" gradientUnits="userSpaceOnUse">
<stop stop-color="#A80000"/>
<stop offset="1" stop-color="#D10509"/>
</linearGradient>
<linearGradient id="paint17_linear_1223_3659" x1="13.0006" y1="9.98121" x2="9.32158" y2="2.32626" gradientUnits="userSpaceOnUse">
<stop stop-color="#A80000"/>
<stop offset="1" stop-color="#D10509"/>
</linearGradient>
<linearGradient id="paint18_linear_1223_3659" x1="23.1057" y1="9.9468" x2="19.5682" y2="2.18681" gradientUnits="userSpaceOnUse">
<stop stop-color="#A80000"/>
<stop offset="1" stop-color="#D10509"/>
</linearGradient>
<linearGradient id="paint19_linear_1223_3659" x1="15.9104" y1="20.6661" x2="15.388" y2="15.8721" gradientUnits="userSpaceOnUse">
<stop stop-color="#A80000"/>
<stop offset="1" stop-color="#D10509"/>
</linearGradient>
<linearGradient id="paint20_linear_1223_3659" x1="28.7627" y1="20.6661" x2="28.2403" y2="15.8721" gradientUnits="userSpaceOnUse">
<stop stop-color="#A80000"/>
<stop offset="1" stop-color="#D10509"/>
</linearGradient>
</defs>
</svg>
