<svg width="11" height="11" viewBox="0 0 11 11" fill="none" xmlns="http://www.w3.org/2000/svg">
<path fill-rule="evenodd" clip-rule="evenodd" d="M2.21222 5.11743C3.09222 6.74805 4.51 8.07905 6.23944 8.91453L7.58389 7.64691C7.74889 7.49133 7.99333 7.43948 8.20722 7.50862C8.89167 7.72181 9.63111 7.83705 10.3889 7.83705C10.725 7.83705 11 8.09633 11 8.41324V10.4241C11 10.741 10.725 11.0003 10.3889 11.0003C4.65056 11.0003 0 6.61553 0 1.2051C0 0.888192 0.275 0.628906 0.611111 0.628906H2.75C3.08611 0.628906 3.36111 0.888192 3.36111 1.2051C3.36111 1.92533 3.48333 2.61676 3.70944 3.2621C3.77667 3.46376 3.72778 3.68848 3.55667 3.84981L2.21222 5.11743Z" fill="#424B5A"/>
</svg>
