<svg width="4534" height="9674" viewBox="0 0 4534 9674" fill="none" xmlns="http://www.w3.org/2000/svg">
<g filter="url(#filter0_f_1572_131)">
<path d="M3359.47 1533C3313.65 1719.54 2830.12 1793.71 2759.48 1818C2759.48 1818 2097.47 2189.36 2495.47 2515C2893.47 2840.64 3295.6 2610.5 3439.47 2999C3579.25 3376.46 2464.65 4183.91 1959.47 4047C1739.15 3987.29 2109.47 3619 1959.47 3023C1821.78 2475.93 1434.19 2222.97 1411.47 1818C1385 1346.38 1411.47 608.431 1411.47 608.431L2679.97 300C2668.51 406.87 2579.08 767.333 3124.57 951.304C3630.8 1122.04 3389.86 1409.26 3359.47 1533Z" fill="url(#paint0_linear_1572_131)"/>
</g>
<g filter="url(#filter1_f_1572_131)">
<path d="M2580.43 4516.16C2318.75 4703.02 2434.45 4941.3 2649.42 5038.57C3024.06 5208.1 2783.34 5716.38 2332.62 5686.95C1881.89 5657.52 1878.8 5136.02 1586.16 5291.87C1301.83 5443.29 1064.54 5919.86 1504.23 6127.17C1695.98 6217.58 2193.66 6268.55 2670.66 6160.55C3018.1 6081.89 3442.88 5971.76 3653.7 5735.88C3899.22 5461.18 4233.11 4992.21 4233.11 4992.21L3673.26 4365.88C3630.55 4438.19 4190.06 4836.06 3697.97 4634.43C3241.3 4447.32 2734.16 4406.39 2580.43 4516.16Z" fill="url(#paint1_linear_1572_131)"/>
</g>
<g filter="url(#filter2_f_1572_131)">
<path d="M3296.26 1598.08C3250.44 1753.48 2830.36 1797.77 2759.71 1818L2067.47 1911L2519.47 2703L2919.47 3051L2291.47 2943L1675.47 2583L1411.47 1818V810.312H1526.03C1514.57 899.345 2039.73 1109.8 2736.78 1192.6C3282.24 1257.39 3326.66 1494.99 3296.26 1598.08Z" fill="url(#paint2_linear_1572_131)"/>
</g>
<g filter="url(#filter3_f_1572_131)">
<path d="M2033.1 2315.94C2025.66 2182.42 1497.6 1843.1 1445.47 1745L1455.86 2416.35C1597.78 2522.73 1895.59 2599.65 2091.71 2743.19C2316.32 2907.57 2393.47 2947 2369.47 3067C2344.59 3191.38 2327.61 3481.79 2489.47 3587C2569.47 3639 3333.47 3359 3089.47 2947C2953.47 2743.19 2040.54 2449.45 2033.1 2315.94Z" fill="url(#paint3_linear_1572_131)"/>
</g>
<g filter="url(#filter4_f_1572_131)">
<path d="M2348.07 4328.89C2445.83 4196.02 2434.38 4132.17 2378.31 4032.4C2308.07 3907.41 2156.51 3900.61 2017.99 3941.02C1870.5 3984.06 1785.42 3518.99 1680.24 3602.78C1559.79 3698.75 1519.39 3803.61 1535.67 3951.64C1557.85 4153.27 1724.84 4506.54 1977.94 4433.29C2105.49 4389.03 2258.5 4450.62 2348.07 4328.89Z" fill="url(#paint4_linear_1572_131)"/>
</g>
<g filter="url(#filter5_f_1572_131)">
<path d="M1863.51 4752.05C1967.91 4668.48 2543.39 4452.22 2645.59 4443.96C2747.8 4435.7 3342.85 4621.09 3281.06 4875.92C3215.26 5147.25 3804.57 5568.91 3659.45 5763.85C3493.23 5987.12 2810.73 5251.14 1832.65 5594.76C1712.98 5636.8 1994.86 5978.81 1871.18 6127.03C1810.05 6200.29 997.465 6157.8 1109.26 5692.2C1179.17 5457.37 1744.44 4847.36 1863.51 4752.05Z" fill="url(#paint5_linear_1572_131)"/>
</g>
<g filter="url(#filter6_f_1572_131)">
<path d="M1911.51 1309.59C1826.4 1206.44 1586.11 1086.1 1485.99 1037.97L1506.01 1732.5C1683.36 1734.1 1968.85 1619.61 2211.88 1619.04C2490.21 1618.38 2774.18 1741.31 2827.63 1732.5C2952.78 1711.87 3166.52 1647.9 3102.51 1465.78C3046.44 1306.25 2582.33 1263.75 2382.08 1278.65C2452.17 1419.62 1996.61 1412.74 1911.51 1309.59Z" fill="url(#paint6_linear_1572_131)"/>
</g>
<g filter="url(#filter7_f_1572_131)">
<path d="M3273.01 7534.51C3229.2 7695.43 2766.84 7759.42 2699.3 7780.37C2699.3 7780.37 2066.28 8100.74 2446.85 8381.66C2827.42 8662.58 3494.01 7920.56 3631.58 8255.71C3765.24 8581.34 1915.38 9481.5 1432.33 9363.39C1221.66 9311.88 1942.94 8952.76 1799.51 8438.6C1667.85 7966.65 1432.06 8129.74 1410.33 7780.37C1385.03 7373.51 1410.33 6736.9 1410.33 6736.9C1410.33 6736.9 2547.24 6383.69 2623.27 6470.83C2699.3 6557.96 2526.8 6873.98 3048.4 7032.69C3532.46 7179.98 3302.07 7427.76 3273.01 7534.51Z" fill="url(#paint7_linear_1572_131)"/>
</g>
<g filter="url(#filter8_f_1572_131)">
<path d="M2512.97 7980.1C2257.43 7935.16 2207.81 7629.44 2178.22 7577.04C2178.22 7577.04 2231.89 7230.99 2063.19 7071.69C1731.78 6758.78 721.773 7336 721.773 7336L120.886 7597.08L336.086 7153.44L969.218 6737.85C969.218 6737.85 1197.08 6697.1 1703.89 6678.43C2357.56 6654.34 3921.7 6212.05 3929.01 6684.34C3929.51 6716.6 3922.48 6766.78 3922.48 6766.78C3775.23 6751.68 3395.7 7113.42 3218.43 7608.69C3079.71 7996.24 2682.48 8009.92 2512.97 7980.1Z" fill="url(#paint8_linear_1572_131)"/>
</g>
<g filter="url(#filter9_f_1572_131)">
<path d="M3438 6964.28C3613.85 6914.13 3745.13 6669.57 3830.47 6604.93L1636.72 6744.73C1624.48 6865.66 2328.72 6965.28 2316.54 7131.22C2302.58 7321.27 2309.02 7546.07 2320.76 7583.23C2348.24 7670.25 2442.89 7821.07 2748.73 7791.39C3016.64 7765.4 3112.29 7451.86 3098.38 7314.02C3019 7052.55 3262.14 7014.44 3438 6964.28Z" fill="url(#paint9_linear_1572_131)"/>
</g>
<defs>
<filter id="filter0_f_1572_131" x="1099.71" y="0" width="2651.79" height="4362.46" filterUnits="userSpaceOnUse" color-interpolation-filters="sRGB">
<feFlood flood-opacity="0" result="BackgroundImageFix"/>
<feBlend mode="normal" in="SourceGraphic" in2="BackgroundImageFix" result="shape"/>
<feGaussianBlur stdDeviation="150" result="effect1_foregroundBlur_1572_131"/>
</filter>
<filter id="filter1_f_1572_131" x="961.232" y="4065.88" width="3571.88" height="2455.62" filterUnits="userSpaceOnUse" color-interpolation-filters="sRGB">
<feFlood flood-opacity="0" result="BackgroundImageFix"/>
<feBlend mode="normal" in="SourceGraphic" in2="BackgroundImageFix" result="shape"/>
<feGaussianBlur stdDeviation="150" result="effect1_foregroundBlur_1572_131"/>
</filter>
<filter id="filter2_f_1572_131" x="1291.47" y="690.312" width="2132" height="2480.69" filterUnits="userSpaceOnUse" color-interpolation-filters="sRGB">
<feFlood flood-opacity="0" result="BackgroundImageFix"/>
<feBlend mode="normal" in="SourceGraphic" in2="BackgroundImageFix" result="shape"/>
<feGaussianBlur stdDeviation="60" result="effect1_foregroundBlur_1572_131"/>
</filter>
<filter id="filter3_f_1572_131" x="1205.47" y="1505" width="2171.88" height="2328.21" filterUnits="userSpaceOnUse" color-interpolation-filters="sRGB">
<feFlood flood-opacity="0" result="BackgroundImageFix"/>
<feBlend mode="normal" in="SourceGraphic" in2="BackgroundImageFix" result="shape"/>
<feGaussianBlur stdDeviation="120" result="effect1_foregroundBlur_1572_131"/>
</filter>
<filter id="filter4_f_1572_131" x="1232.23" y="3292.66" width="1488.87" height="1450.47" filterUnits="userSpaceOnUse" color-interpolation-filters="sRGB">
<feFlood flood-opacity="0" result="BackgroundImageFix"/>
<feBlend mode="normal" in="SourceGraphic" in2="BackgroundImageFix" result="shape"/>
<feGaussianBlur stdDeviation="150" result="effect1_foregroundBlur_1572_131"/>
</filter>
<filter id="filter5_f_1572_131" x="798.712" y="4143.7" width="3183.82" height="2311.83" filterUnits="userSpaceOnUse" color-interpolation-filters="sRGB">
<feFlood flood-opacity="0" result="BackgroundImageFix"/>
<feBlend mode="normal" in="SourceGraphic" in2="BackgroundImageFix" result="shape"/>
<feGaussianBlur stdDeviation="150" result="effect1_foregroundBlur_1572_131"/>
</filter>
<filter id="filter6_f_1572_131" x="1335.99" y="887.966" width="1928.22" height="994.986" filterUnits="userSpaceOnUse" color-interpolation-filters="sRGB">
<feFlood flood-opacity="0" result="BackgroundImageFix"/>
<feBlend mode="normal" in="SourceGraphic" in2="BackgroundImageFix" result="shape"/>
<feGaussianBlur stdDeviation="75" result="effect1_foregroundBlur_1572_131"/>
</filter>
<filter id="filter7_f_1572_131" x="1093.47" y="6157" width="2845" height="3517" filterUnits="userSpaceOnUse" color-interpolation-filters="sRGB">
<feFlood flood-opacity="0" result="BackgroundImageFix"/>
<feBlend mode="normal" in="SourceGraphic" in2="BackgroundImageFix" result="shape"/>
<feGaussianBlur stdDeviation="150" result="effect1_foregroundBlur_1572_131"/>
</filter>
<filter id="filter8_f_1572_131" x="0.88623" y="6347.37" width="4048.15" height="1762.77" filterUnits="userSpaceOnUse" color-interpolation-filters="sRGB">
<feFlood flood-opacity="0" result="BackgroundImageFix"/>
<feBlend mode="normal" in="SourceGraphic" in2="BackgroundImageFix" result="shape"/>
<feGaussianBlur stdDeviation="60" result="effect1_foregroundBlur_1572_131"/>
</filter>
<filter id="filter9_f_1572_131" x="1486.57" y="6454.93" width="2493.9" height="1490.27" filterUnits="userSpaceOnUse" color-interpolation-filters="sRGB">
<feFlood flood-opacity="0" result="BackgroundImageFix"/>
<feBlend mode="normal" in="SourceGraphic" in2="BackgroundImageFix" result="shape"/>
<feGaussianBlur stdDeviation="75" result="effect1_foregroundBlur_1572_131"/>
</filter>
<linearGradient id="paint0_linear_1572_131" x1="2176.47" y1="1220" x2="2573.4" y2="324.244" gradientUnits="userSpaceOnUse">
<stop offset="0.180011" stop-color="#2C9BA3"/>
<stop offset="1" stop-color="#2B519C" stop-opacity="0.42"/>
</linearGradient>
<linearGradient id="paint1_linear_1572_131" x1="3199.38" y1="4876.02" x2="3475.74" y2="4155.33" gradientUnits="userSpaceOnUse">
<stop stop-color="#00BBC7"/>
<stop offset="1" stop-color="#2B519C" stop-opacity="0"/>
</linearGradient>
<linearGradient id="paint2_linear_1572_131" x1="2837.67" y1="1783.64" x2="1481.25" y2="240.581" gradientUnits="userSpaceOnUse">
<stop stop-color="#15C6BB"/>
<stop offset="0.340832" stop-color="#17AEB8"/>
<stop offset="0.653131" stop-color="#33D0C7" stop-opacity="0.98"/>
<stop offset="1" stop-color="#2E62C7" stop-opacity="0"/>
</linearGradient>
<linearGradient id="paint3_linear_1572_131" x1="2852.2" y1="3231.74" x2="1173.06" y2="1959.58" gradientUnits="userSpaceOnUse">
<stop stop-color="white" stop-opacity="0.24"/>
<stop offset="0.450396" stop-color="#176F7B" stop-opacity="0.53"/>
<stop offset="1" stop-color="white"/>
</linearGradient>
<linearGradient id="paint4_linear_1572_131" x1="1938.24" y1="4970.45" x2="1988.35" y2="3717.09" gradientUnits="userSpaceOnUse">
<stop stop-color="white" stop-opacity="0.52"/>
<stop offset="0.28648" stop-color="#31C6BD" stop-opacity="0.53"/>
<stop offset="0.739726" stop-color="#B7F7EB" stop-opacity="0.904976"/>
<stop offset="0.928656" stop-color="#BEFFE8"/>
</linearGradient>
<linearGradient id="paint5_linear_1572_131" x1="1070.47" y1="6078" x2="3409.38" y2="5117.81" gradientUnits="userSpaceOnUse">
<stop stop-color="white" stop-opacity="0.52"/>
<stop offset="0.28648" stop-color="#0AAFA5" stop-opacity="0.94"/>
<stop offset="0.739726" stop-color="#63EDD4" stop-opacity="0.904976"/>
<stop offset="0.928656" stop-color="#BEFFE8"/>
</linearGradient>
<linearGradient id="paint6_linear_1572_131" x1="3081.47" y1="1511" x2="1221.51" y2="1493.8" gradientUnits="userSpaceOnUse">
<stop stop-color="white"/>
<stop offset="0.450396" stop-color="#0085A3" stop-opacity="0.78"/>
<stop offset="1" stop-color="white"/>
</linearGradient>
<linearGradient id="paint7_linear_1572_131" x1="2141.82" y1="7264.49" x2="2460.5" y2="6467.4" gradientUnits="userSpaceOnUse">
<stop offset="0.180011" stop-color="#24B7C0"/>
<stop offset="1" stop-color="#1E69FF" stop-opacity="0.42"/>
</linearGradient>
<linearGradient id="paint8_linear_1572_131" x1="2230.86" y1="7635.79" x2="3228.98" y2="5856.86" gradientUnits="userSpaceOnUse">
<stop stop-color="#15C6BB"/>
<stop offset="0.340832" stop-color="#17AEB8"/>
<stop offset="0.653131" stop-color="#33D0C7" stop-opacity="0.98"/>
<stop offset="1" stop-color="#2E62C7" stop-opacity="0"/>
</linearGradient>
<linearGradient id="paint9_linear_1572_131" x1="2674.79" y1="7773.55" x2="2738.58" y2="6501.97" gradientUnits="userSpaceOnUse">
<stop stop-color="white"/>
<stop offset="0.450396" stop-color="#0085A3" stop-opacity="0.78"/>
<stop offset="1" stop-color="white"/>
</linearGradient>
</defs>
</svg>
