<svg width="1360" height="609" viewBox="0 0 1360 609" fill="none" xmlns="http://www.w3.org/2000/svg">
<g filter="url(#filter0_f_1566_118)">
<path d="M124.52 269.99H373.09V330.29H124.52V540H50.82V61.62H383.81V123.26H124.52V269.99ZM492.177 411.36L444.607 540H364.877L552.477 61.62H645.607L832.537 540H752.137L704.567 411.36H492.177ZM599.377 128.62H596.697L514.957 349.72H681.787L599.377 128.62ZM1185.09 508.51C1149.81 536.65 1105.14 550.72 1051.09 550.72C1005.98 550.72 966.227 540.67 931.833 520.57C897.887 500.023 871.533 470.99 852.773 433.47C834.013 395.503 824.633 351.283 824.633 300.81C824.633 250.337 834.013 206.34 852.773 168.82C871.533 130.853 897.887 101.82 931.833 81.72C966.227 61.1733 1005.98 50.9 1051.09 50.9C1096.21 50.9 1135.74 61.1733 1169.68 81.72C1204.08 101.82 1230.65 130.853 1249.41 168.82C1268.17 206.34 1277.55 250.337 1277.55 300.81C1277.55 364.237 1263.04 416.273 1234 456.92L1309.04 558.09H1219.93L1185.09 508.51ZM1051.09 489.08C1097.55 489.08 1134.4 472.553 1161.64 439.5C1188.89 406 1202.51 359.77 1202.51 300.81C1202.51 241.85 1188.89 195.843 1161.64 162.79C1134.4 129.29 1097.55 112.54 1051.09 112.54C1004.64 112.54 967.79 129.29 940.543 162.79C913.297 195.843 899.673 241.85 899.673 300.81C899.673 359.77 913.297 406 940.543 439.5C967.79 472.553 1004.64 489.08 1051.09 489.08Z" fill="url(#paint0_linear_1566_118)" fill-opacity="0.5"/>
</g>
<defs>
<filter id="filter0_f_1566_118" x="0.819824" y="0.900391" width="1358.22" height="607.189" filterUnits="userSpaceOnUse" color-interpolation-filters="sRGB">
<feFlood flood-opacity="0" result="BackgroundImageFix"/>
<feBlend mode="normal" in="SourceGraphic" in2="BackgroundImageFix" result="shape"/>
<feGaussianBlur stdDeviation="25" result="effect1_foregroundBlur_1566_118"/>
</filter>
<linearGradient id="paint0_linear_1566_118" x1="94.4765" y1="156.763" x2="1418.41" y2="442.276" gradientUnits="userSpaceOnUse">
<stop stop-color="#0A8E8A"/>
<stop offset="1" stop-color="#0A8E8A" stop-opacity="0"/>
</linearGradient>
</defs>
</svg>
