<?xml version="1.0" standalone="no"?>
<!DOCTYPE svg PUBLIC "-//W3C//DTD SVG 20010904//EN"
 "http://www.w3.org/TR/2001/REC-SVG-20010904/DTD/svg10.dtd">
<svg version="1.0" xmlns="http://www.w3.org/2000/svg"
 width="1280.000000pt" height="1275.000000pt" viewBox="0 0 1280.000000 1275.000000"
 preserveAspectRatio="xMidYMid meet">
<g transform="translate(0.000000,1275.000000) scale(0.100000,-0.100000)"
fill="#a2262e" stroke="none">
<path d="M6125 12744 c-165 -11 -425 -36 -545 -54 -1199 -179 -2339 -719
-3322 -1577 -158 -137 -492 -472 -635 -634 -408 -466 -732 -951 -998 -1494
-130 -265 -204 -441 -287 -680 -450 -1292 -450 -2568 0 -3860 83 -239 157
-415 287 -680 266 -543 590 -1028 998 -1494 143 -162 477 -497 635 -634 1071
-934 2309 -1484 3632 -1614 243 -24 777 -24 1020 0 1323 130 2561 680 3632
1614 158 137 492 472 635 634 408 466 732 951 998 1494 130 265 204 441 287
680 450 1292 450 2568 0 3860 -83 239 -157 415 -287 680 -266 543 -590 1028
-998 1494 -143 162 -477 497 -635 634 -1068 931 -2319 1488 -3622 1612 -156
15 -666 27 -795 19z"/>
</g>
</svg>
