<svg width="30" height="42" viewBox="0 0 30 42" fill="none" xmlns="http://www.w3.org/2000/svg">
<mask id="mask0_671_55621" style="mask-type:alpha" maskUnits="userSpaceOnUse" x="0" y="0" width="30" height="42">
<path fill-rule="evenodd" clip-rule="evenodd" d="M5.39442 21.8574V29.0364C5.39442 32.7534 8.68798 35.7667 12.7508 35.7667H16.6742C20.737 35.7667 24.0305 32.7534 24.0305 29.0364V21.8574H25.0114V29.0364C25.0114 33.249 21.2787 36.664 16.6742 36.664H12.7508C8.14627 36.664 4.41357 33.249 4.41357 29.0364V21.8574H5.39442Z" fill="#D20509"/>
<path fill-rule="evenodd" clip-rule="evenodd" d="M5.39442 21.8574V28.2403C5.39442 32.0173 8.68798 35.0792 12.7508 35.0792H16.6742C20.737 35.0792 24.0305 32.0173 24.0305 28.2403V21.8574H25.0114V28.2403C25.0114 32.5209 21.2787 35.991 16.6742 35.991H12.7508C8.14627 35.991 4.41357 32.5209 4.41357 28.2403V21.8574H5.39442Z" fill="#D20509"/>
<path fill-rule="evenodd" clip-rule="evenodd" d="M14.3911 35.6788V0H15.3196V35.6788H14.3911Z" fill="#D20509"/>
<path fill-rule="evenodd" clip-rule="evenodd" d="M22.5595 7.4643C21.6306 7.19562 20.6421 7.05078 19.617 7.05078H17.2939V8.85733H19.617C20.6575 8.85733 21.6508 9.04386 22.5595 9.3826V7.4643ZM24.5212 10.4422C26.3151 11.7666 27.4637 13.8015 27.4637 16.0835V32.3425C27.4637 36.3334 23.9506 39.5687 19.617 39.5687H9.80848C5.47482 39.5687 1.9617 36.3334 1.9617 32.3425V16.0835C1.9617 13.8015 3.11034 11.7666 4.90424 10.4422V8.2592C1.97248 9.82101 0 12.7401 0 16.0835V32.3425C0 37.3311 4.3914 41.3752 9.80848 41.3752H19.617C25.034 41.3752 29.4254 37.3311 29.4254 32.3425V16.0835C29.4254 12.7401 27.453 9.82101 24.5212 8.2592V10.4422ZM9.80848 8.85733C8.76789 8.85733 7.77462 9.04386 6.86593 9.3826V7.4643C7.79484 7.19562 8.78329 7.05078 9.80848 7.05078H12.1315V8.85733H9.80848Z" fill="black"/>
<path fill-rule="evenodd" clip-rule="evenodd" d="M21.1287 3.07818V8.88239H22.568V3.36879C22.105 3.23555 21.6239 3.13748 21.1287 3.07818ZM24.643 4.17796V10.415H26.0823V5.22583C25.6505 4.83065 25.1676 4.47864 24.643 4.17796ZM3.45605 5.22584V10.415H4.89534V4.17797C4.37067 4.47865 3.8878 4.83066 3.45605 5.22584ZM6.84051 3.41343L6.84051 8.88239H8.45897V3.07818C7.96373 3.13748 7.30343 3.28019 6.84051 3.41343ZM11.0657 3.01172V8.88239H12.505V3.01172H11.0657ZM16.6495 3.01173V8.88239H18.0888V3.01173H16.6495Z" fill="black"/>
<path d="M0.855957 19.0556C2.01806 18.664 5.2543 17.8809 6.84804 17.8809C8.84022 17.8809 12.4899 19.4472 14.9802 19.4472C17.4704 19.4472 20.2641 17.8809 22.2563 17.8809C24.2484 17.8809 28.2484 19.4472 28.2484 19.4472" stroke="#AEAEAE"/>
</mask>
<g mask="url(#mask0_671_55621)">
<path d="M-0.000488281 -1.70117H29.4249V41.3727H-0.000488281V-1.70117Z" fill="url(#paint0_linear_671_55621)"/>
</g>
<defs>
<linearGradient id="paint0_linear_671_55621" x1="14.7122" y1="-1.70117" x2="14.7122" y2="41.3727" gradientUnits="userSpaceOnUse">
<stop stop-color="#D20509"/>
<stop offset="0.503125" stop-color="#CD0408"/>
<stop offset="1" stop-color="#A60003"/>
</linearGradient>
</defs>
</svg>
