<svg width="371" height="177" viewBox="0 0 371 177" fill="none" xmlns="http://www.w3.org/2000/svg">
<g filter="url(#filter0_d_2_2)">
<path d="M101.103 157.565C95.7908 157.565 91.0548 156.445 86.8948 154.205C82.7988 151.901 79.5668 148.765 77.1988 144.797C74.8948 140.765 73.7428 136.157 73.7428 130.973C73.7428 125.725 74.8308 121.117 77.0068 117.149C79.2468 113.117 82.3188 109.981 86.2228 107.741C90.1268 105.437 94.6068 104.285 99.6628 104.285C104.655 104.285 108.943 105.405 112.527 107.645C116.111 109.821 118.831 112.861 120.687 116.765C122.607 120.605 123.567 125.053 123.567 130.109C123.567 131.325 123.151 132.349 122.319 133.181C121.487 133.949 120.431 134.333 119.151 134.333H80.4628V126.653H118.863L114.927 129.341C114.863 126.141 114.223 123.293 113.007 120.797C111.791 118.237 110.063 116.221 107.823 114.749C105.583 113.277 102.863 112.541 99.6628 112.541C96.0148 112.541 92.8788 113.341 90.2548 114.941C87.6948 116.541 85.7428 118.749 84.3988 121.565C83.0548 124.317 82.3828 127.453 82.3828 130.973C82.3828 134.493 83.1828 137.629 84.7828 140.381C86.3828 143.133 88.5908 145.309 91.4068 146.909C94.2228 148.509 97.4548 149.309 101.103 149.309C103.087 149.309 105.103 148.957 107.151 148.253C109.263 147.485 110.959 146.621 112.239 145.661C113.199 144.957 114.223 144.605 115.311 144.605C116.463 144.541 117.455 144.861 118.287 145.565C119.375 146.525 119.951 147.581 120.015 148.733C120.079 149.885 119.567 150.877 118.479 151.709C116.303 153.437 113.583 154.845 110.319 155.933C107.119 157.021 104.047 157.565 101.103 157.565ZM140.76 124.349C140.76 120.509 141.688 117.085 143.544 114.077C145.464 111.005 148.024 108.573 151.224 106.781C154.424 104.989 157.944 104.093 161.784 104.093C165.624 104.093 168.472 104.733 170.328 106.013C172.248 107.229 172.984 108.701 172.536 110.429C172.344 111.325 171.96 112.029 171.384 112.541C170.872 112.989 170.264 113.277 169.56 113.405C168.856 113.533 168.088 113.501 167.256 113.309C163.16 112.477 159.48 112.413 156.216 113.117C152.952 113.821 150.36 115.133 148.44 117.053C146.584 118.973 145.656 121.405 145.656 124.349H140.76ZM140.856 157.181C139.32 157.181 138.136 156.797 137.304 156.029C136.472 155.197 136.056 153.981 136.056 152.381V109.469C136.056 107.933 136.472 106.749 137.304 105.917C138.136 105.085 139.32 104.669 140.856 104.669C142.456 104.669 143.64 105.085 144.408 105.917C145.24 106.685 145.656 107.869 145.656 109.469V152.381C145.656 153.917 145.24 155.101 144.408 155.933C143.64 156.765 142.456 157.181 140.856 157.181ZM202.708 157.565C197.716 157.565 193.204 156.413 189.172 154.109C185.204 151.741 182.036 148.541 179.668 144.509C177.364 140.477 176.212 135.933 176.212 130.877C176.212 125.821 177.268 121.309 179.38 117.341C181.556 113.309 184.5 110.141 188.212 107.837C191.924 105.469 196.116 104.285 200.788 104.285C204.564 104.285 208.052 105.085 211.252 106.685C214.452 108.221 217.14 110.333 219.316 113.021V87.1007C219.316 85.6287 219.764 84.4447 220.66 83.5487C221.62 82.6527 222.804 82.2047 224.212 82.2047C225.684 82.2047 226.868 82.6527 227.764 83.5487C228.66 84.4447 229.108 85.6287 229.108 87.1007V130.877C229.108 135.933 227.924 140.477 225.556 144.509C223.252 148.541 220.116 151.741 216.148 154.109C212.18 156.413 207.7 157.565 202.708 157.565ZM202.708 148.925C205.972 148.925 208.884 148.157 211.444 146.621C214.004 145.021 216.02 142.845 217.492 140.093C218.964 137.341 219.7 134.269 219.7 130.877C219.7 127.421 218.964 124.349 217.492 121.661C216.02 118.973 214.004 116.861 211.444 115.325C208.884 113.725 205.972 112.925 202.708 112.925C199.508 112.925 196.596 113.725 193.972 115.325C191.412 116.861 189.364 118.973 187.828 121.661C186.356 124.349 185.62 127.421 185.62 130.877C185.62 134.269 186.356 137.341 187.828 140.093C189.364 142.845 191.412 145.021 193.972 146.621C196.596 148.157 199.508 148.925 202.708 148.925ZM271.072 157.565C265.76 157.565 261.024 156.445 256.864 154.205C252.768 151.901 249.536 148.765 247.168 144.797C244.864 140.765 243.712 136.157 243.712 130.973C243.712 125.725 244.8 121.117 246.976 117.149C249.216 113.117 252.288 109.981 256.192 107.741C260.096 105.437 264.576 104.285 269.632 104.285C274.624 104.285 278.912 105.405 282.496 107.645C286.08 109.821 288.8 112.861 290.656 116.765C292.576 120.605 293.536 125.053 293.536 130.109C293.536 131.325 293.12 132.349 292.288 133.181C291.456 133.949 290.4 134.333 289.12 134.333H250.432V126.653H288.832L284.896 129.341C284.832 126.141 284.192 123.293 282.976 120.797C281.76 118.237 280.032 116.221 277.792 114.749C275.552 113.277 272.832 112.541 269.632 112.541C265.984 112.541 262.848 113.341 260.224 114.941C257.664 116.541 255.712 118.749 254.368 121.565C253.024 124.317 252.352 127.453 252.352 130.973C252.352 134.493 253.152 137.629 254.752 140.381C256.352 143.133 258.56 145.309 261.376 146.909C264.192 148.509 267.424 149.309 271.072 149.309C273.056 149.309 275.072 148.957 277.12 148.253C279.232 147.485 280.928 146.621 282.208 145.661C283.168 144.957 284.192 144.605 285.28 144.605C286.432 144.541 287.424 144.861 288.256 145.565C289.344 146.525 289.92 147.581 289.984 148.733C290.048 149.885 289.536 150.877 288.448 151.709C286.272 153.437 283.552 154.845 280.288 155.933C277.088 157.021 274.016 157.565 271.072 157.565ZM339.982 157.181C339.342 157.181 338.734 157.085 338.158 156.893C337.582 156.701 337.038 156.285 336.526 155.645L319.726 135.485L316.27 132.029L299.566 112.253C298.734 111.229 298.286 110.141 298.222 108.989C298.158 107.773 298.478 106.749 299.182 105.917C299.886 105.085 300.942 104.669 302.35 104.669C303.886 104.669 305.102 105.213 305.998 106.301L322.414 125.885L324.91 128.189L342.958 149.789C343.918 150.941 344.366 152.093 344.302 153.245C344.302 154.333 343.886 155.261 343.054 156.029C342.286 156.797 341.262 157.181 339.982 157.181ZM303.31 157.181C302.03 157.181 301.006 156.797 300.238 156.029C299.534 155.197 299.182 154.205 299.182 153.053C299.182 151.901 299.63 150.749 300.526 149.597L316.846 129.149L322.03 136.445L306.766 155.645C305.806 156.669 304.654 157.181 303.31 157.181ZM327.022 132.509L320.398 126.845L335.854 106.301C336.366 105.661 336.91 105.245 337.486 105.053C338.062 104.797 338.702 104.669 339.406 104.669C340.814 104.669 341.87 105.117 342.574 106.013C343.278 106.845 343.598 107.869 343.534 109.085C343.534 110.301 343.086 111.485 342.19 112.637L327.022 132.509Z" fill="#A6A7A7"/>
</g>
<g filter="url(#filter1_d_2_2)">
<path fill-rule="evenodd" clip-rule="evenodd" d="M19.4107 8.20685e-07C12.1919 6.29667 -0.0883594 28.6598 5.34924 50.3657C12.1462 77.4981 17.0522 79.3154 24.1995 80.1032C28.2451 80.549 35.43 77.2508 42.4795 74.0148C46.3556 72.2355 50.1908 70.475 53.4407 69.366C55.3939 74.0502 56.2562 80.5541 53.2943 91.0683C43.952 93.4734 34.7831 98.0832 29.1758 108.312C19.0561 126.771 26.1312 151.381 31.9279 156.701C37.7246 162.02 52.7211 164.95 57.5741 159.527C61.7992 154.806 56.2159 148.359 52.9722 144.614C52.4901 144.057 52.0597 143.56 51.7208 143.137C49.1022 139.87 41.2858 121.987 50.0481 100.399C51.4381 96.9745 52.5028 93.8782 53.2943 91.0683C58.7425 89.6657 64.2496 89.0128 69.1437 88.4327C71.003 88.2122 72.7739 88.0023 74.4194 87.7658C78.2707 87.2121 81.8371 87.3296 84.9321 87.4316C92.6091 87.6846 97.3852 87.842 96.4106 77.4234C95.043 62.8044 65.6661 66.8008 56.9795 68.3966C55.9132 68.5925 54.7224 68.9286 53.4407 69.366C52.6253 67.4106 51.6199 65.7724 50.6233 64.2918C48.5914 61.2734 45.2204 55.3984 46.2432 49.9791C46.7095 47.5087 48.9519 44.9688 51.3268 42.279C54.1616 39.0682 57.185 35.6438 57.601 31.869C58.6667 22.1991 56.1656 19.7957 51.1205 19.2397C50.8102 19.2055 50.5511 18.8277 50.1282 18.2114C49.1185 16.7396 47.1753 13.9072 41.3743 11.1442C36.7247 8.92958 29.0643 8.93638 24.8385 10.5983L19.4107 8.20685e-07ZM37.2909 26.1807C39.7762 26.1807 41.7909 24.166 41.7909 21.6807C41.7909 19.1954 39.7762 17.1807 37.2909 17.1807C34.8056 17.1807 32.7909 19.1954 32.7909 21.6807C32.7909 24.166 34.8056 26.1807 37.2909 26.1807Z" fill="#A6A7A7"/>
</g>
<defs>
<filter id="filter0_d_2_2" x="69.7428" y="82.2047" width="278.656" height="83.36" filterUnits="userSpaceOnUse" color-interpolation-filters="sRGB">
<feFlood flood-opacity="0" result="BackgroundImageFix"/>
<feColorMatrix in="SourceAlpha" type="matrix" values="0 0 0 0 0 0 0 0 0 0 0 0 0 0 0 0 0 0 127 0" result="hardAlpha"/>
<feOffset dy="4"/>
<feGaussianBlur stdDeviation="2"/>
<feComposite in2="hardAlpha" operator="out"/>
<feColorMatrix type="matrix" values="0 0 0 0 0 0 0 0 0 0 0 0 0 0 0 0 0 0 0.25 0"/>
<feBlend mode="normal" in2="BackgroundImageFix" result="effect1_dropShadow_2_2"/>
<feBlend mode="normal" in="SourceGraphic" in2="effect1_dropShadow_2_2" result="shape"/>
</filter>
<filter id="filter1_d_2_2" x="0" y="0" width="100.536" height="170.418" filterUnits="userSpaceOnUse" color-interpolation-filters="sRGB">
<feFlood flood-opacity="0" result="BackgroundImageFix"/>
<feColorMatrix in="SourceAlpha" type="matrix" values="0 0 0 0 0 0 0 0 0 0 0 0 0 0 0 0 0 0 127 0" result="hardAlpha"/>
<feOffset dy="4"/>
<feGaussianBlur stdDeviation="2"/>
<feComposite in2="hardAlpha" operator="out"/>
<feColorMatrix type="matrix" values="0 0 0 0 0 0 0 0 0 0 0 0 0 0 0 0 0 0 0.25 0"/>
<feBlend mode="normal" in2="BackgroundImageFix" result="effect1_dropShadow_2_2"/>
<feBlend mode="normal" in="SourceGraphic" in2="effect1_dropShadow_2_2" result="shape"/>
</filter>
</defs>
</svg>
